B612MonoLigaNerdFont-Regular.ufo
<glyph name="exclam" format="2">
  <advance width="1300"/>
  <unicode hex="0021"/>
  <outline>
    <contour>
      <point x="395" y="1500" type="line"/>
      <point x="395" y="429" type="line"/>
      <point x="605" y="450" type="line"/>
      <point x="605" y="1500" type="line"/>
    </contour>
    <contour>
      <point x="378" y="106" type="curve" smooth="yes" name=".hr01"/>
      <point x="378" y="39"/>
      <point x="432" y="-17"/>
      <point x="500" y="-17" type="curve" smooth="yes"/>
      <point x="567" y="-17"/>
      <point x="620" y="39"/>
      <point x="620" y="106" type="curve" smooth="yes"/>
      <point x="620" y="173"/>
      <point x="566" y="227" name=".hr02"/>
      <point x="499" y="227" type="curve" smooth="yes"/>
      <point x="432" y="227"/>
      <point x="378" y="173"/>
    </contour>
  </outline>
</glyph>
<glyph name="quotedbl" format="2">
  <advance width="1300"/>
  <unicode hex="0022"/>
  <outline>
    <contour>
      <point x="350" y="1500" type="line"/>
      <point x="350" y="1400" type="line" smooth="yes"/>
      <point x="350" y="1350"/>
      <point x="359" y="1268"/>
      <point x="372" y="1196" type="curve" smooth="yes"/>
      <point x="394" y="1067" type="line"/>
      <point x="481" y="1067" type="line"/>
      <point x="502" y="1196" type="line" smooth="yes"/>
      <point x="513" y="1268"/>
      <point x="525" y="1350"/>
      <point x="525" y="1400" type="curve" smooth="yes"/>
      <point x="525" y="1500" type="line"/>
    </contour>
    <contour>
      <point x="651" y="1500" type="line"/>
      <point x="651" y="1400" type="line" smooth="yes"/>
      <point x="651" y="1350"/>
      <point x="660" y="1268"/>
      <point x="673" y="1196" type="curve" smooth="yes"/>
      <point x="695" y="1067" type="line"/>
      <point x="782" y="1067" type="line"/>
      <point x="803" y="1196" type="line" smooth="yes"/>
      <point x="814" y="1268"/>
      <point x="826" y="1350"/>
      <point x="826" y="1400" type="curve" smooth="yes"/>
      <point x="826" y="1500" type="line"/>
    </contour>
  </outline>
</glyph>
<glyph name="percent" format="2">
  <advance width="1300"/>
  <unicode hex="0025"/>
  <outline>
    <contour>
      <point x="359" y="800" type="curve" smooth="yes"/>
      <point x="551" y="800"/>
      <point x="617" y="956"/>
      <point x="617" y="1162" type="curve" smooth="yes"/>
      <point x="617" y="1366"/>
      <point x="546" y="1517"/>
      <point x="359" y="1517" type="curve" smooth="yes"/>
      <point x="164" y="1517"/>
      <point x="100" y="1366"/>
      <point x="100" y="1162" type="curve" smooth="yes"/>
      <point x="100" y="956"/>
      <point x="171" y="800"/>
    </contour>
    <contour>
      <point x="1071" y="1500" type="line"/>
      <point x="905" y="1500" type="line"/>
      <point x="229" y="0" type="line"/>
      <point x="395" y="0" type="line"/>
    </contour>
    <contour>
      <point x="468" y="1105" type="line" smooth="yes"/>
      <point x="468" y="1019"/>
      <point x="459" y="944"/>
      <point x="363" y="944" type="curve" smooth="yes"/>
      <point x="261" y="944"/>
      <point x="252" y="1027"/>
      <point x="252" y="1123" type="curve" smooth="yes"/>
      <point x="252" y="1224" type="line" smooth="yes"/>
      <point x="252" y="1312"/>
      <point x="260" y="1386"/>
      <point x="358" y="1386" type="curve" smooth="yes"/>
      <point x="459" y="1386"/>
      <point x="468" y="1303"/>
      <point x="468" y="1210" type="curve" smooth="yes"/>
    </contour>
    <contour>
      <point x="942" y="-17" type="curve" smooth="yes"/>
      <point x="1134" y="-17" name=".hr01"/>
      <point x="1200" y="139"/>
      <point x="1200" y="345" type="curve" smooth="yes"/>
      <point x="1200" y="549"/>
      <point x="1129" y="700"/>
      <point x="942" y="700" type="curve" smooth="yes"/>
      <point x="747" y="700"/>
      <point x="683" y="549"/>
      <point x="683" y="345" type="curve" smooth="yes"/>
      <point x="683" y="139"/>
      <point x="754" y="-17"/>
    </contour>
    <contour>
      <point x="1051" y="288" type="line" smooth="yes"/>
      <point x="1051" y="202"/>
      <point x="1042" y="127"/>
      <point x="946" y="127" type="curve" smooth="yes"/>
      <point x="844" y="127"/>
      <point x="835" y="210"/>
      <point x="835" y="306" type="curve" smooth="yes"/>
      <point x="835" y="407" type="line" smooth="yes"/>
      <point x="835" y="495"/>
      <point x="843" y="569"/>
      <point x="941" y="569" type="curve" smooth="yes"/>
      <point x="1042" y="569"/>
      <point x="1051" y="486"/>
      <point x="1051" y="393" type="curve" smooth="yes"/>
    </contour>
  </outline>
</glyph>
<glyph name="plus" format="2">
  <advance width="1300"/>
  <unicode hex="002B"/>
  <outline>
    <contour>
      <point x="200" y="545" type="line"/>
      <point x="573" y="545" type="line"/>
      <point x="573" y="122" type="line"/>
      <point x="728" y="122" type="line"/>
      <point x="728" y="545" type="line"/>
      <point x="1100" y="545" type="line"/>
      <point x="1100" y="700" type="line"/>
      <point x="728" y="700" type="line"/>
      <point x="728" y="1121" type="line"/>
      <point x="573" y="1121" type="line"/>
      <point x="573" y="700" type="line"/>
      <point x="200" y="700" type="line"/>
    </contour>
  </outline>
</glyph>
<glyph name="comma" format="2">
  <advance width="1300"/>
  <unicode hex="002C"/>
  <outline>
    <contour>
      <point x="152" y="127" type="curve" smooth="yes"/>
      <point x="152" y="35"/>
      <point x="217" y="-14"/>
      <point x="285" y="-17" type="curve"/>
      <point x="285" y="-76"/>
      <point x="265" y="-141"/>
      <point x="245" y="-193" type="curve" smooth="yes"/>
      <point x="233" y="-224"/>
      <point x="219" y="-255"/>
      <point x="204" y="-284" type="curve"/>
      <point x="256" y="-307" type="line"/>
      <point x="422" y="-154"/>
      <point x="448" y="-29"/>
      <point x="448" y="110" type="curve" smooth="yes"/>
      <point x="448" y="215"/>
      <point x="376" y="271"/>
      <point x="300" y="271" type="curve" smooth="yes"/>
      <point x="219" y="271"/>
      <point x="152" y="205"/>
    </contour>
  </outline>
</glyph>
<glyph name="period" format="2">
  <advance width="1300"/>
  <unicode hex="002E"/>
  <outline>
    <contour>
      <point x="136" y="150" type="curve" smooth="yes"/>
      <point x="136" y="59"/>
      <point x="210" y="-17"/>
      <point x="302" y="-17" type="curve" smooth="yes"/>
      <point x="392" y="-17"/>
      <point x="465" y="59"/>
      <point x="465" y="150" type="curve" smooth="yes"/>
      <point x="465" y="241"/>
      <point x="391" y="315"/>
      <point x="300" y="315" type="curve" smooth="yes"/>
      <point x="210" y="315"/>
      <point x="136" y="241"/>
    </contour>
  </outline>
</glyph>
<glyph name="two" format="2">
  <advance width="1300"/>
  <unicode hex="0032"/>
  <outline>
    <contour>
      <point x="1117" y="0" type="line"/>
      <point x="1117" y="160" type="line"/>
      <point x="417" y="160" type="line"/>
      <point x="497" y="288"/>
      <point x="642" y="443"/>
      <point x="780" y="605" type="curve" smooth="yes"/>
      <point x="889" y="733"/>
      <point x="1061" y="899"/>
      <point x="1061" y="1104" type="curve" smooth="yes"/>
      <point x="1061" y="1307"/>
      <point x="905" y="1517"/>
      <point x="636" y="1517" type="curve" smooth="yes"/>
      <point x="408" y="1517"/>
      <point x="262" y="1393"/>
      <point x="193" y="1220" type="curve"/>
      <point x="334" y="1160" type="line"/>
      <point x="390" y="1251"/>
      <point x="458" y="1348"/>
      <point x="621" y="1348" type="curve" smooth="yes"/>
      <point x="765" y="1348"/>
      <point x="866" y="1243"/>
      <point x="866" y="1115" type="curve" smooth="yes"/>
      <point x="866" y="945"/>
      <point x="738" y="849"/>
      <point x="599" y="688" type="curve"/>
      <point x="479" y="552"/>
      <point x="305" y="362"/>
      <point x="183" y="168" type="curve"/>
      <point x="183" y="0" type="line"/>
    </contour>
  </outline>
</glyph>
<glyph name="four" format="2">
  <advance width="1300"/>
  <unicode hex="0034"/>
  <outline>
    <contour>
      <point x="1151" y="460" type="line"/>
      <point x="956" y="460" type="line"/>
      <point x="956" y="850" type="line"/>
      <point x="746" y="867" type="line"/>
      <point x="746" y="460" type="line"/>
      <point x="316" y="460" type="line"/>
      <point x="409" y="600" type="line"/>
      <point x="824" y="1500" type="line"/>
      <point x="635" y="1520" type="line"/>
      <point x="151" y="471" type="line"/>
      <point x="151" y="300" type="line"/>
      <point x="746" y="300" type="line"/>
      <point x="746" y="0" type="line"/>
      <point x="956" y="0" type="line"/>
      <point x="956" y="300" type="line"/>
      <point x="1136" y="300" type="line"/>
    </contour>
  </outline>
</glyph>
<glyph name="five" format="2">
  <advance width="1300"/>
  <unicode hex="0035"/>
  <outline>
    <contour>
      <point x="456" y="1340" type="line"/>
      <point x="1001" y="1340" type="line"/>
      <point x="1001" y="1500" type="line"/>
      <point x="248" y="1500" type="line"/>
      <point x="248" y="800" type="line"/>
      <point x="372" y="800" type="line"/>
      <point x="412" y="827"/>
      <point x="496" y="866"/>
      <point x="631" y="866" type="curve" smooth="yes"/>
      <point x="804" y="866"/>
      <point x="892" y="733"/>
      <point x="892" y="598" type="curve" smooth="yes"/>
      <point x="892" y="350"/>
      <point x="548" y="168"/>
      <point x="248" y="160" type="curve"/>
      <point x="248" y="0" type="line"/>
      <point x="632" y="0"/>
      <point x="1097" y="214"/>
      <point x="1097" y="619" type="curve" smooth="yes"/>
      <point x="1097" y="849"/>
      <point x="935" y="1035"/>
      <point x="658" y="1035" type="curve" smooth="yes"/>
      <point x="550" y="1035"/>
      <point x="476" y="993"/>
      <point x="456" y="982" type="curve"/>
    </contour>
  </outline>
</glyph>
<glyph name="colon" format="2">
  <advance width="1300"/>
  <unicode hex="003A"/>
  <outline>
    <contour>
      <point x="152" y="647" type="curve" smooth="yes"/>
      <point x="152" y="564"/>
      <point x="219" y="497"/>
      <point x="302" y="497" type="curve" smooth="yes"/>
      <point x="382" y="497"/>
      <point x="448" y="564"/>
      <point x="448" y="647" type="curve" smooth="yes"/>
      <point x="448" y="730"/>
      <point x="383" y="795"/>
      <point x="300" y="795" type="curve" smooth="yes"/>
      <point x="219" y="795"/>
      <point x="152" y="730"/>
    </contour>
    <contour>
      <point x="152" y="133" type="curve" smooth="yes"/>
      <point x="152" y="50"/>
      <point x="219" y="-17"/>
      <point x="302" y="-17" type="curve" smooth="yes"/>
      <point x="382" y="-17"/>
      <point x="448" y="50"/>
      <point x="448" y="133" type="curve" smooth="yes"/>
      <point x="448" y="216"/>
      <point x="383" y="281"/>
      <point x="300" y="281" type="curve" smooth="yes"/>
      <point x="219" y="281"/>
      <point x="152" y="216"/>
    </contour>
  </outline>
</glyph>
<glyph name="semicolon" format="2">
  <advance width="1300"/>
  <unicode hex="003B"/>
  <outline>
    <contour>
      <point x="152" y="641" type="curve" smooth="yes"/>
      <point x="152" y="558"/>
      <point x="219" y="491"/>
      <point x="302" y="491" type="curve" smooth="yes"/>
      <point x="382" y="491"/>
      <point x="448" y="558"/>
      <point x="448" y="641" type="curve" smooth="yes"/>
      <point x="448" y="724"/>
      <point x="383" y="789"/>
      <point x="300" y="789" type="curve" smooth="yes"/>
      <point x="219" y="789"/>
      <point x="152" y="724"/>
    </contour>
    <contour>
      <point x="152" y="127" type="curve" smooth="yes"/>
      <point x="152" y="35"/>
      <point x="217" y="-14"/>
      <point x="285" y="-17" type="curve"/>
      <point x="285" y="-76"/>
      <point x="265" y="-141"/>
      <point x="245" y="-193" type="curve" smooth="yes"/>
      <point x="233" y="-224"/>
      <point x="219" y="-255"/>
      <point x="204" y="-284" type="curve"/>
      <point x="256" y="-307" type="line"/>
      <point x="422" y="-154"/>
      <point x="448" y="-29"/>
      <point x="448" y="110" type="curve" smooth="yes"/>
      <point x="448" y="215"/>
      <point x="376" y="271"/>
      <point x="300" y="271" type="curve" smooth="yes"/>
      <point x="219" y="271"/>
      <point x="152" y="205"/>
    </contour>
  </outline>
</glyph>
<glyph name="less" format="2">
  <advance width="1300"/>
  <unicode hex="003C"/>
  <outline>
    <contour>
      <point x="200" y="757" type="line"/>
      <point x="200" y="548" type="line"/>
      <point x="1100" y="91" type="line"/>
      <point x="1100" y="266" type="line"/>
      <point x="412" y="630" type="line"/>
      <point x="335" y="650" type="line"/>
      <point x="413" y="670" type="line"/>
      <point x="1100" y="1036" type="line"/>
      <point x="1100" y="1211" type="line"/>
    </contour>
  </outline>
</glyph>
<glyph name="equal" format="2">
  <advance width="1300"/>
  <unicode hex="003D"/>
  <outline>
    <contour>
      <point x="200" y="560" type="line"/>
      <point x="1000" y="560" type="line"/>
      <point x="1000" y="700" type="line"/>
      <point x="200" y="700" type="line"/>
    </contour>
    <contour>
      <point x="200" y="260" type="line"/>
      <point x="1000" y="260" type="line"/>
      <point x="1000" y="400" type="line"/>
      <point x="200" y="400" type="line"/>
    </contour>
  </outline>
</glyph>
<glyph name="E" format="2">
  <advance width="1300"/>
  <unicode hex="0045"/>
  <outline>
    <contour>
      <point x="385" y="160" type="line"/>
      <point x="395" y="340" type="line"/>
      <point x="395" y="740" type="line"/>
      <point x="1030" y="740" type="line"/>
      <point x="1030" y="885" type="line"/>
      <point x="395" y="885" type="line"/>
      <point x="395" y="1150" type="line"/>
      <point x="375" y="1340" type="line"/>
      <point x="1100" y="1340" type="line"/>
      <point x="1100" y="1500" type="line"/>
      <point x="180" y="1500" type="line"/>
      <point x="210" y="1290" type="line"/>
      <point x="210" y="200" type="line"/>
      <point x="195" y="0" type="line"/>
      <point x="1115" y="0" type="line"/>
      <point x="1135" y="160" type="line"/>
    </contour>
  </outline>
</glyph>
<glyph name="S" format="2">
  <advance width="1300"/>
  <unicode hex="0053"/>
  <outline>
    <contour>
      <point x="193" y="94" type="line"/>
      <point x="307" y="22"/>
      <point x="430" y="-17"/>
      <point x="599" y="-17" type="curve" smooth="yes"/>
      <point x="867" y="-17"/>
      <point x="1131" y="131"/>
      <point x="1131" y="429" type="curve" smooth="yes"/>
      <point x="1131" y="909"/>
      <point x="426" y="846"/>
      <point x="426" y="1145" type="curve" smooth="yes"/>
      <point x="426" y="1297"/>
      <point x="587" y="1352"/>
      <point x="731" y="1352" type="curve" smooth="yes"/>
      <point x="834" y="1352"/>
      <point x="910" y="1327"/>
      <point x="1001" y="1274" type="curve"/>
      <point x="1098" y="1397" type="line"/>
      <point x="978" y="1477"/>
      <point x="847" y="1517"/>
      <point x="705" y="1517" type="curve" smooth="yes"/>
      <point x="476" y="1517"/>
      <point x="237" y="1384"/>
      <point x="237" y="1126" type="curve" smooth="yes"/>
      <point x="237" y="727"/>
      <point x="936" y="761"/>
      <point x="936" y="413" type="curve" smooth="yes"/>
      <point x="936" y="229"/>
      <point x="750" y="148"/>
      <point x="585" y="148" type="curve" smooth="yes"/>
      <point x="463" y="148"/>
      <point x="337" y="209"/>
      <point x="284" y="244" type="curve"/>
    </contour>
  </outline>
</glyph>
<glyph name="W" format="2">
  <advance width="1300"/>
  <unicode hex="0057"/>
  <outline>
    <contour>
      <point x="415" y="200" type="line"/>
      <point x="411" y="200" type="line"/>
      <point x="380" y="660" type="line"/>
      <point x="212" y="1520" type="line"/>
      <point x="38" y="1500" type="line"/>
      <point x="314" y="0" type="line"/>
      <point x="492" y="0" type="line"/>
      <point x="590" y="450" type="line"/>
      <point x="648" y="950" type="line"/>
      <point x="652" y="950" type="line"/>
      <point x="711" y="450" type="line"/>
      <point x="807" y="0" type="line"/>
      <point x="988" y="0" type="line"/>
      <point x="1260" y="1500" type="line"/>
      <point x="1083" y="1500" type="line"/>
      <point x="930" y="660" type="line"/>
      <point x="898" y="200" type="line"/>
      <point x="894" y="200" type="line"/>
      <point x="823" y="700" type="line"/>
      <point x="720" y="1100" type="line"/>
      <point x="580" y="1100" type="line"/>
      <point x="484" y="700" type="line"/>
    </contour>
  </outline>
</glyph>
<glyph name="X" format="2">
  <advance width="1300"/>
  <unicode hex="0058"/>
  <outline>
    <contour>
      <point x="1229" y="0" type="line"/>
      <point x="799" y="776" type="line"/>
      <point x="1198" y="1500" type="line"/>
      <point x="998" y="1500" type="line"/>
      <point x="746" y="1020" type="line"/>
      <point x="711" y="860" type="line"/>
      <point x="631" y="1056" type="line"/>
      <point x="370" y="1520" type="line"/>
      <point x="158" y="1500" type="line"/>
      <point x="564" y="799" type="line"/>
      <point x="101" y="0" type="line"/>
      <point x="299" y="0" type="line"/>
      <point x="607" y="540" type="line"/>
      <point x="655" y="700" type="line"/>
      <point x="732" y="519" type="line"/>
      <point x="1009" y="0" type="line"/>
    </contour>
  </outline>
</glyph>
<glyph name="bracketleft" format="2">
  <advance width="1300"/>
  <unicode hex="005B"/>
  <outline>
    <contour>
      <point x="422" y="-220" type="line"/>
      <point x="400" y="-420" type="line"/>
      <point x="972" y="-420" type="line"/>
      <point x="972" y="-270" type="line"/>
      <point x="600" y="-270" type="line"/>
      <point x="620" y="-70" type="line"/>
      <point x="620" y="1170" type="line"/>
      <point x="600" y="1370" type="line"/>
      <point x="972" y="1370" type="line"/>
      <point x="972" y="1520" type="line"/>
      <point x="400" y="1520" type="line"/>
      <point x="422" y="1320" type="line"/>
    </contour>
  </outline>
</glyph>
<glyph name="backslash" format="2">
  <advance width="1300"/>
  <unicode hex="005C"/>
  <outline>
    <contour>
      <point x="875" y="-100" type="line"/>
      <point x="1085" y="-100" type="line"/>
      <point x="375" y="1600" type="line"/>
      <point x="175" y="1600" type="line"/>
    </contour>
  </outline>
</glyph>
<glyph name="asciicircum" format="2">
  <advance width="1300"/>
  <unicode hex="005E"/>
  <outline>
    <contour>
      <point x="709" y="1517" type="line"/>
      <point x="580" y="1500" type="line"/>
      <point x="122" y="914" type="line"/>
      <point x="338" y="914" type="line"/>
      <point x="608" y="1241" type="line"/>
      <point x="652" y="1350" type="line"/>
      <point x="697" y="1239" type="line"/>
      <point x="978" y="912" type="line"/>
      <point x="1179" y="912" type="line"/>
    </contour>
  </outline>
</glyph>
<glyph name="grave" format="2">
  <advance width="1300"/>
  <unicode hex="0060"/>
  <outline>
    <contour>
      <point x="689" y="1520" type="line"/>
      <point x="485" y="1500" type="line"/>
      <point x="710" y="1200" type="line"/>
      <point x="860" y="1200" type="line"/>
    </contour>
  </outline>
</glyph>
<glyph name="a" format="2">
  <advance width="1300"/>
  <unicode hex="0061"/>
  <outline>
    <contour>
      <point x="1090" y="180" type="line"/>
      <point x="1090" y="690" type="line" smooth="yes"/>
      <point x="1090" y="945"/>
      <point x="973" y="1117"/>
      <point x="665" y="1117" type="curve" smooth="yes"/>
      <point x="546" y="1117"/>
      <point x="469" y="1099"/>
      <point x="405" y="1080" type="curve" smooth="yes"/>
      <point x="366" y="1069"/>
      <point x="333" y="1057"/>
      <point x="305" y="1044" type="curve"/>
      <point x="377" y="910" type="line"/>
      <point x="404" y="918"/>
      <point x="431" y="926"/>
      <point x="462" y="933" type="curve" smooth="yes"/>
      <point x="514" y="945"/>
      <point x="571" y="957"/>
      <point x="655" y="957" type="curve" smooth="yes"/>
      <point x="835" y="957"/>
      <point x="910" y="863"/>
      <point x="910" y="705" type="curve" smooth="yes"/>
      <point x="910" y="662" type="line"/>
      <point x="843" y="687"/>
      <point x="752" y="702"/>
      <point x="625" y="702" type="curve" smooth="yes"/>
      <point x="400" y="702"/>
      <point x="170" y="592"/>
      <point x="170" y="344" type="curve" smooth="yes"/>
      <point x="170" y="109"/>
      <point x="396" y="-17"/>
      <point x="596" y="-17" type="curve" smooth="yes"/>
      <point x="669" y="-17"/>
      <point x="770" y="15"/>
      <point x="816" y="50" type="curve"/>
      <point x="910" y="162" type="line"/>
      <point x="910" y="0" type="line"/>
      <point x="1110" y="0" type="line"/>
    </contour>
    <contour>
      <point x="910" y="274" type="line"/>
      <point x="823" y="194"/>
      <point x="728" y="143"/>
      <point x="604" y="143" type="curve" smooth="yes"/>
      <point x="479" y="143"/>
      <point x="363" y="225"/>
      <point x="363" y="345" type="curve" smooth="yes"/>
      <point x="363" y="493"/>
      <point x="517" y="542"/>
      <point x="665" y="542" type="curve" smooth="yes"/>
      <point x="678" y="542"/>
      <point x="693" y="542"/>
      <point x="711" y="541" type="curve"/>
      <point x="719" y="541" type="line"/>
      <point x="721" y="541" type="line"/>
      <point x="724" y="540"/>
      <point x="727" y="540"/>
      <point x="730" y="540" type="curve" smooth="yes"/>
      <point x="732" y="540" type="line"/>
      <point x="741" y="540" type="line"/>
      <point x="742" y="540" type="line"/>
      <point x="745" y="540"/>
      <point x="748" y="540"/>
      <point x="751" y="539" type="curve"/>
      <point x="753" y="539" type="line"/>
      <point x="762" y="539" type="line"/>
      <point x="764" y="539" type="line"/>
      <point x="799" y="538"/>
      <point x="831" y="534"/>
      <point x="850" y="533" type="curve"/>
      <point x="910" y="525" type="line"/>
    </contour>
  </outline>
</glyph>
<glyph name="d" format="2">
  <advance width="1300"/>
  <unicode hex="0064"/>
  <outline>
    <contour>
      <point x="1111" y="0" type="line"/>
      <point x="1091" y="180" type="line"/>
      <point x="1091" y="1600" type="line"/>
      <point x="911" y="1620" type="line"/>
      <point x="911" y="1100" type="line"/>
      <point x="745" y="1100" type="line" smooth="yes"/>
      <point x="414" y="1100"/>
      <point x="151" y="846"/>
      <point x="151" y="526" type="curve" smooth="yes"/>
      <point x="151" y="153"/>
      <point x="351" y="-17"/>
      <point x="591" y="-17" type="curve" smooth="yes"/>
      <point x="695" y="-17"/>
      <point x="777" y="17"/>
      <point x="825" y="49" type="curve"/>
      <point x="911" y="162" type="line"/>
      <point x="911" y="0" type="line"/>
    </contour>
    <contour>
      <point x="911" y="940" type="line"/>
      <point x="911" y="306" type="line"/>
      <point x="858" y="239"/>
      <point x="754" y="144"/>
      <point x="630" y="144" type="curve" smooth="yes"/>
      <point x="489" y="144"/>
      <point x="339" y="265"/>
      <point x="339" y="502" type="curve" smooth="yes"/>
      <point x="339" y="745"/>
      <point x="501" y="940"/>
      <point x="746" y="940" type="curve" smooth="yes"/>
    </contour>
  </outline>
</glyph>
<glyph name="g" format="2">
  <advance width="1300"/>
  <unicode hex="0067"/>
  <outline>
    <contour>
      <point x="910" y="-31" type="line" smooth="yes"/>
      <point x="910" y="-212"/>
      <point x="778" y="-357"/>
      <point x="613" y="-357" type="curve" smooth="yes"/>
      <point x="549" y="-357"/>
      <point x="493" y="-338"/>
      <point x="452" y="-318" type="curve" smooth="yes"/>
      <point x="428" y="-306"/>
      <point x="406" y="-293"/>
      <point x="387" y="-278" type="curve"/>
      <point x="289" y="-388" type="line"/>
      <point x="312" y="-413"/>
      <point x="340" y="-434"/>
      <point x="372" y="-453" type="curve" smooth="yes"/>
      <point x="428" y="-485"/>
      <point x="507" y="-517"/>
      <point x="612" y="-517" type="curve" smooth="yes"/>
      <point x="916" y="-517"/>
      <point x="1090" y="-307"/>
      <point x="1090" y="-46" type="curve" smooth="yes"/>
      <point x="1090" y="1100" type="line"/>
      <point x="910" y="1120" type="line"/>
      <point x="910" y="958" type="line"/>
      <point x="815" y="1100" type="line"/>
      <point x="774" y="1115"/>
      <point x="725" y="1117"/>
      <point x="676" y="1117" type="curve" smooth="yes"/>
      <point x="361" y="1117"/>
      <point x="150" y="857"/>
      <point x="150" y="545" type="curve" smooth="yes"/>
      <point x="150" y="237"/>
      <point x="387" y="-17"/>
      <point x="630" y="-17" type="curve" smooth="yes"/>
      <point x="734" y="-17"/>
      <point x="800" y="10"/>
      <point x="823" y="25" type="curve"/>
      <point x="910" y="135" type="line"/>
    </contour>
    <contour>
      <point x="910" y="275" type="line"/>
      <point x="857" y="209"/>
      <point x="782" y="144"/>
      <point x="646" y="144" type="curve" smooth="yes"/>
      <point x="494" y="144"/>
      <point x="340" y="306"/>
      <point x="340" y="533" type="curve" smooth="yes"/>
      <point x="340" y="712"/>
      <point x="431" y="957"/>
      <point x="671" y="957" type="curve" smooth="yes"/>
      <point x="747" y="957"/>
      <point x="806" y="926"/>
      <point x="847" y="895" type="curve" smooth="yes"/>
      <point x="872" y="876"/>
      <point x="893" y="856"/>
      <point x="910" y="834" type="curve"/>
    </contour>
  </outline>
</glyph>
<glyph name="i" format="2">
  <advance width="1300"/>
  <unicode hex="0069"/>
  <outline>
    <contour>
      <point x="515" y="1300" type="line"/>
      <point x="717" y="1300" type="line"/>
      <point x="717" y="1500" type="line"/>
      <point x="515" y="1500" type="line"/>
    </contour>
    <contour>
      <point x="1112" y="210" type="line"/>
      <point x="1096" y="205"/>
      <point x="972" y="153"/>
      <point x="841" y="153" type="curve" smooth="yes"/>
      <point x="742" y="153"/>
      <point x="711" y="254"/>
      <point x="711" y="393" type="curve" smooth="yes"/>
      <point x="711" y="1100" type="line"/>
      <point x="200" y="1100" type="line"/>
      <point x="220" y="940" type="line"/>
      <point x="421" y="940" type="line"/>
      <point x="561" y="980" type="line"/>
      <point x="521" y="920" type="line"/>
      <point x="521" y="403" type="line" smooth="yes"/>
      <point x="521" y="165"/>
      <point x="570" y="-17"/>
      <point x="831" y="-17" type="curve" smooth="yes"/>
      <point x="1007" y="-17"/>
      <point x="1135" y="48"/>
      <point x="1151" y="56" type="curve"/>
    </contour>
  </outline>
</glyph>
<glyph name="k" format="2">
  <advance width="1300"/>
  <unicode hex="006B"/>
  <outline>
    <contour>
      <point x="391" y="0" type="line"/>
      <point x="391" y="557" type="line"/>
      <point x="885" y="0" type="line"/>
      <point x="1121" y="0" type="line"/>
      <point x="630" y="567" type="line"/>
      <point x="452" y="627" type="line"/>
      <point x="630" y="690" type="line"/>
      <point x="1010" y="1100" type="line"/>
      <point x="781" y="1100" type="line"/>
      <point x="391" y="690" type="line"/>
      <point x="391" y="1620" type="line"/>
      <point x="191" y="1600" type="line"/>
      <point x="211" y="1420" type="line"/>
      <point x="211" y="0" type="line"/>
    </contour>
  </outline>
</glyph>
<glyph name="p" format="2">
  <advance width="1300"/>
  <unicode hex="0070"/>
  <outline>
    <contour>
      <point x="390" y="-500" type="line"/>
      <point x="390" y="0" type="line"/>
      <point x="535" y="0" type="line" smooth="yes"/>
      <point x="879" y="0"/>
      <point x="1150" y="237"/>
      <point x="1150" y="565" type="curve" smooth="yes"/>
      <point x="1150" y="901"/>
      <point x="920" y="1117"/>
      <point x="699" y="1117" type="curve" smooth="yes"/>
      <point x="595" y="1117"/>
      <point x="524" y="1094"/>
      <point x="485" y="1071" type="curve"/>
      <point x="390" y="944" type="line"/>
      <point x="390" y="1120" type="line"/>
      <point x="210" y="1100" type="line"/>
      <point x="210" y="-500" type="line"/>
    </contour>
    <contour>
      <point x="390" y="827" type="line"/>
      <point x="441" y="883"/>
      <point x="540" y="957"/>
      <point x="670" y="957" type="curve" smooth="yes"/>
      <point x="801" y="957"/>
      <point x="960" y="839"/>
      <point x="960" y="578" type="curve" smooth="yes"/>
      <point x="960" y="330"/>
      <point x="799" y="160"/>
      <point x="554" y="160" type="curve" smooth="yes"/>
      <point x="390" y="160" type="line"/>
    </contour>
  </outline>
</glyph>
<glyph name="q" format="2">
  <advance width="1300"/>
  <unicode hex="0071"/>
  <outline>
    <contour>
      <point x="911" y="-500" type="line"/>
      <point x="1091" y="-500" type="line"/>
      <point x="1091" y="1065" type="line"/>
      <point x="1037" y="1084"/>
      <point x="870" y="1117"/>
      <point x="701" y="1117" type="curve" smooth="yes"/>
      <point x="408" y="1117"/>
      <point x="151" y="892"/>
      <point x="151" y="524" type="curve" smooth="yes"/>
      <point x="151" y="188"/>
      <point x="387" y="-17"/>
      <point x="607" y="-17" type="curve" smooth="yes"/>
      <point x="671" y="-17"/>
      <point x="738" y="-3"/>
      <point x="806" y="29" type="curve"/>
      <point x="911" y="136" type="line"/>
    </contour>
    <contour>
      <point x="911" y="270" type="line"/>
      <point x="829" y="204"/>
      <point x="731" y="143"/>
      <point x="626" y="143" type="curve" smooth="yes"/>
      <point x="503" y="143"/>
      <point x="346" y="257"/>
      <point x="346" y="524" type="curve" smooth="yes"/>
      <point x="346" y="728"/>
      <point x="453" y="957"/>
      <point x="697" y="957" type="curve" smooth="yes"/>
      <point x="770" y="957"/>
      <point x="861" y="946"/>
      <point x="911" y="935" type="curve"/>
    </contour>
  </outline>
</glyph>
<glyph name="r" format="2">
  <advance width="1300"/>
  <unicode hex="0072"/>
  <outline>
    <contour>
      <point x="391" y="1120" type="line"/>
      <point x="211" y="1100" type="line"/>
      <point x="211" y="0" type="line"/>
      <point x="391" y="0" type="line"/>
      <point x="391" y="750" type="line"/>
      <point x="464" y="857"/>
      <point x="591" y="947"/>
      <point x="773" y="947" type="curve" smooth="yes"/>
      <point x="832" y="947"/>
      <point x="910" y="936"/>
      <point x="930" y="928" type="curve"/>
      <point x="980" y="750" type="line"/>
      <point x="1130" y="770" type="line"/>
      <point x="1080" y="1055" type="line"/>
      <point x="1048" y="1076"/>
      <point x="969" y="1117"/>
      <point x="770" y="1117" type="curve" smooth="yes"/>
      <point x="677" y="1117"/>
      <point x="558" y="1110"/>
      <point x="482" y="1053" type="curve"/>
      <point x="391" y="895" type="line"/>
    </contour>
  </outline>
</glyph>
<glyph name="u" format="2">
  <advance width="1300"/>
  <unicode hex="0075"/>
  <outline>
    <contour>
      <point x="931" y="300" type="line"/>
      <point x="905" y="248"/>
      <point x="816" y="148"/>
      <point x="663" y="148" type="curve" smooth="yes"/>
      <point x="454" y="148"/>
      <point x="391" y="257"/>
      <point x="391" y="430" type="curve" smooth="yes"/>
      <point x="391" y="1120" type="line"/>
      <point x="211" y="1100" type="line"/>
      <point x="211" y="430" type="line" smooth="yes"/>
      <point x="211" y="200"/>
      <point x="312" y="-17"/>
      <point x="635" y="-17" type="curve" smooth="yes"/>
      <point x="761" y="-17"/>
      <point x="847" y="44"/>
      <point x="870" y="73" type="curve"/>
      <point x="931" y="180" type="line"/>
      <point x="931" y="0" type="line"/>
      <point x="1111" y="0" type="line"/>
      <point x="1111" y="1120" type="line"/>
      <point x="931" y="1100" type="line"/>
    </contour>
  </outline>
</glyph>
<glyph name="v" format="2">
  <advance width="1300"/>
  <unicode hex="0076"/>
  <outline>
    <contour>
      <point x="934" y="1100" type="line"/>
      <point x="700" y="381" type="line"/>
      <point x="650" y="149" type="line"/>
      <point x="597" y="381" type="line"/>
      <point x="358" y="1120" type="line"/>
      <point x="175" y="1100" type="line"/>
      <point x="532" y="0" type="line"/>
      <point x="738" y="-20" type="line"/>
      <point x="1109" y="1120" type="line"/>
    </contour>
  </outline>
</glyph>
<glyph name="asciitilde" format="2">
  <advance width="1300"/>
  <unicode hex="007E"/>
  <outline>
    <contour>
      <point x="282" y="468" type="line"/>
      <point x="306" y="537"/>
      <point x="363" y="601"/>
      <point x="447" y="601" type="curve" smooth="yes"/>
      <point x="592" y="601"/>
      <point x="677" y="422" name=".hr01"/>
      <point x="822" y="422" type="curve" smooth="yes"/>
      <point x="1003" y="422"/>
      <point x="1139" y="611"/>
      <point x="1166" y="776" type="curve"/>
      <point x="1020" y="792" type="line"/>
      <point x="999" y="713"/>
      <point x="944" y="626"/>
      <point x="847" y="626" type="curve" smooth="yes"/>
      <point x="703" y="626"/>
      <point x="653" y="805" name=".hr02"/>
      <point x="471" y="805" type="curve" smooth="yes"/>
      <point x="307" y="805"/>
      <point x="163" y="634"/>
      <point x="133" y="484" type="curve"/>
    </contour>
  </outline>
</glyph>
<glyph name="sterling" format="2">
  <advance width="1300"/>
  <unicode hex="00A3"/>
  <outline>
    <contour>
      <point x="350" y="700" type="line"/>
      <point x="490" y="700" type="line"/>
      <point x="447" y="398"/>
      <point x="413" y="230"/>
      <point x="386" y="197" type="curve" smooth="yes"/>
      <point x="360" y="164"/>
      <point x="335" y="147"/>
      <point x="312" y="147" type="curve" smooth="yes"/>
      <point x="174" y="147" type="line"/>
      <point x="154" y="0" type="line"/>
      <point x="1100" y="0" type="line"/>
      <point x="1100" y="147" type="line"/>
      <point x="662" y="147" type="line"/>
      <point x="500" y="104" type="line"/>
      <point x="588" y="224" type="line" smooth="yes"/>
      <point x="607" y="250"/>
      <point x="635" y="409"/>
      <point x="672" y="700" type="curve"/>
      <point x="880" y="700" type="line"/>
      <point x="900" y="850" type="line"/>
      <point x="693" y="850" type="line"/>
      <point x="734" y="1141" type="line"/>
      <point x="753" y="1286"/>
      <point x="788" y="1372"/>
      <point x="919" y="1372" type="curve" smooth="yes"/>
      <point x="964" y="1372"/>
      <point x="1009" y="1357"/>
      <point x="1055" y="1327" type="curve"/>
      <point x="1145" y="1428" type="line"/>
      <point x="1126" y="1445"/>
      <point x="1093" y="1464"/>
      <point x="1044" y="1487" type="curve" smooth="yes"/>
      <point x="996" y="1510"/>
      <point x="940" y="1517"/>
      <point x="872" y="1517" type="curve" smooth="yes"/>
      <point x="668" y="1517"/>
      <point x="586" y="1369"/>
      <point x="556" y="1165" type="curve" smooth="yes"/>
      <point x="511" y="850" type="line"/>
      <point x="350" y="850" type="line"/>
    </contour>
  </outline>
</glyph>
<glyph name="periodcentered" format="2">
  <advance width="1300"/>
  <unicode hex="00B7"/>
  <outline>
    <contour>
      <point x="136" y="650" type="curve" smooth="yes"/>
      <point x="136" y="559"/>
      <point x="210" y="483"/>
      <point x="302" y="483" type="curve" smooth="yes"/>
      <point x="392" y="483"/>
      <point x="465" y="559"/>
      <point x="465" y="650" type="curve" smooth="yes"/>
      <point x="465" y="741"/>
      <point x="391" y="815"/>
      <point x="300" y="815" type="curve" smooth="yes"/>
      <point x="210" y="815"/>
      <point x="136" y="741"/>
    </contour>
  </outline>
</glyph>
<glyph name="questiondown" format="2">
  <advance width="1300"/>
  <unicode hex="00BF"/>
  <outline>
    <contour>
      <point x="829" y="994" type="curve" smooth="yes"/>
      <point x="829" y="1061"/>
      <point x="775" y="1117"/>
      <point x="707" y="1117" type="curve" smooth="yes"/>
      <point x="640" y="1117"/>
      <point x="587" y="1061"/>
      <point x="587" y="994" type="curve" smooth="yes"/>
      <point x="587" y="927"/>
      <point x="641" y="873"/>
      <point x="708" y="873" type="curve" smooth="yes"/>
      <point x="775" y="873"/>
      <point x="829" y="927"/>
    </contour>
    <contour>
      <point x="207" y="-44" type="curve" smooth="yes"/>
      <point x="207" y="-300"/>
      <point x="421" y="-417"/>
      <point x="647" y="-417" type="curve" smooth="yes"/>
      <point x="787" y="-417"/>
      <point x="969" y="-377"/>
      <point x="1100" y="-200" type="curve"/>
      <point x="967" y="-90" type="line"/>
      <point x="892" y="-190"/>
      <point x="774" y="-251"/>
      <point x="672" y="-251" type="curve" smooth="yes"/>
      <point x="531" y="-251"/>
      <point x="417" y="-192"/>
      <point x="417" y="-52" type="curve" smooth="yes"/>
      <point x="417" y="201"/>
      <point x="812" y="197"/>
      <point x="812" y="671" type="curve" name=".hr01"/>
      <point x="602" y="650" type="line"/>
      <point x="602" y="317"/>
      <point x="207" y="293"/>
    </contour>
  </outline>
</glyph>
<glyph name="Atilde" format="2">
  <advance width="1300"/>
  <unicode hex="00C3"/>
  <outline>
    <contour>
      <point x="410" y="1652" type="line"/>
      <point x="421" y="1692"/>
      <point x="453" y="1740"/>
      <point x="500" y="1740" type="curve" smooth="yes"/>
      <point x="594" y="1740"/>
      <point x="675" y="1651"/>
      <point x="759" y="1651" type="curve" smooth="yes"/>
      <point x="863" y="1651"/>
      <point x="946" y="1761"/>
      <point x="954" y="1878" type="curve"/>
      <point x="858" y="1882" type="line"/>
      <point x="850" y="1835"/>
      <point x="822" y="1774"/>
      <point x="766" y="1774" type="curve" smooth="yes"/>
      <point x="683" y="1774"/>
      <point x="610" y="1864"/>
      <point x="506" y="1864" type="curve" smooth="yes"/>
      <point x="411" y="1864"/>
      <point x="335" y="1763"/>
      <point x="324" y="1655" type="curve"/>
    </contour>
    <contour>
      <point x="216" y="0" type="line"/>
      <point x="382" y="450" type="line"/>
      <point x="917" y="450" type="line"/>
      <point x="1065" y="0" type="line"/>
      <point x="1265" y="0" type="line"/>
      <point x="717" y="1520" type="line"/>
      <point x="539" y="1500" type="line"/>
      <point x="504" y="1300" type="line"/>
      <point x="32" y="0" type="line"/>
    </contour>
    <contour>
      <point x="690" y="1080" type="line"/>
      <point x="868" y="600" type="line"/>
      <point x="431" y="600" type="line"/>
      <point x="600" y="1080" type="line"/>
      <point x="645" y="1400" type="line"/>
    </contour>
  </outline>
</glyph>
<glyph name="Ccedilla" format="2">
  <advance width="1300"/>
  <unicode hex="00C7"/>
  <outline>
    <contour>
      <point x="1060" y="230" type="line"/>
      <point x="957" y="172"/>
      <point x="904" y="153"/>
      <point x="785" y="153" type="curve" smooth="yes"/>
      <point x="477" y="153"/>
      <point x="296" y="482"/>
      <point x="296" y="773" type="curve" smooth="yes"/>
      <point x="296" y="1085"/>
      <point x="453" y="1348"/>
      <point x="778" y="1348" type="curve" smooth="yes"/>
      <point x="901" y="1348"/>
      <point x="980" y="1310"/>
      <point x="1044" y="1268" type="curve"/>
      <point x="1134" y="1375" type="line"/>
      <point x="1038" y="1467"/>
      <point x="915" y="1517"/>
      <point x="762" y="1517" type="curve" smooth="yes"/>
      <point x="322" y="1517"/>
      <point x="90" y="1173"/>
      <point x="90" y="770" type="curve" smooth="yes"/>
      <point x="90" y="410"/>
      <point x="287" y="105"/>
      <point x="576" y="12" type="curve" smooth="yes"/>
      <point x="600" y="4"/>
      <point x="624" y="-2"/>
      <point x="649" y="-7" type="curve"/>
      <point x="666" y="-25"/>
      <point x="681" y="-43"/>
      <point x="695" y="-62" type="curve" smooth="yes"/>
      <point x="722" y="-98"/>
      <point x="748" y="-145"/>
      <point x="748" y="-189" type="curve" smooth="yes"/>
      <point x="748" y="-245"/>
      <point x="702" y="-279"/>
      <point x="653" y="-279" type="curve" smooth="yes"/>
      <point x="614" y="-279"/>
      <point x="573" y="-264"/>
      <point x="541" y="-249" type="curve" smooth="yes"/>
      <point x="522" y="-240"/>
      <point x="504" y="-230"/>
      <point x="487" y="-218" type="curve"/>
      <point x="416" y="-318" type="line"/>
      <point x="441" y="-335"/>
      <point x="468" y="-350"/>
      <point x="497" y="-363" type="curve" smooth="yes"/>
      <point x="546" y="-386"/>
      <point x="610" y="-407"/>
      <point x="677" y="-407" type="curve" smooth="yes"/>
      <point x="794" y="-407"/>
      <point x="901" y="-315"/>
      <point x="901" y="-198" type="curve" smooth="yes"/>
      <point x="901" y="-145"/>
      <point x="880" y="-95"/>
      <point x="859" y="-59" type="curve" smooth="yes"/>
      <point x="850" y="-43"/>
      <point x="841" y="-28"/>
      <point x="830" y="-14" type="curve"/>
      <point x="869" y="-11" type="line"/>
      <point x="972" y="3"/>
      <point x="1055" y="38"/>
      <point x="1137" y="104" type="curve"/>
    </contour>
  </outline>
</glyph>
<glyph name="Edieresis" format="2">
  <advance width="1300"/>
  <unicode hex="00CB"/>
  <outline>
    <contour>
      <point x="385" y="160" type="line"/>
      <point x="395" y="340" type="line"/>
      <point x="395" y="740" type="line"/>
      <point x="1030" y="740" type="line"/>
      <point x="1030" y="885" type="line"/>
      <point x="395" y="885" type="line"/>
      <point x="395" y="1150" type="line"/>
      <point x="375" y="1340" type="line"/>
      <point x="1100" y="1340" type="line"/>
      <point x="1100" y="1500" type="line"/>
      <point x="180" y="1500" type="line"/>
      <point x="210" y="1290" type="line"/>
      <point x="210" y="200" type="line"/>
      <point x="195" y="0" type="line"/>
      <point x="1115" y="0" type="line"/>
      <point x="1135" y="160" type="line"/>
    </contour>
    <contour>
      <point x="350" y="1600" type="line"/>
      <point x="550" y="1600" type="line"/>
      <point x="550" y="1800" type="line"/>
      <point x="350" y="1800" type="line"/>
    </contour>
    <contour>
      <point x="750" y="1600" type="line"/>
      <point x="950" y="1600" type="line"/>
      <point x="950" y="1800" type="line"/>
      <point x="750" y="1800" type="line"/>
    </contour>
  </outline>
</glyph>
<glyph name="Idieresis" format="2">
  <advance width="1300"/>
  <unicode hex="00CF"/>
  <outline>
    <contour>
      <point x="186" y="1340" type="line"/>
      <point x="562" y="1340" type="line"/>
      <point x="562" y="160" type="line"/>
      <point x="206" y="160" type="line"/>
      <point x="206" y="0" type="line"/>
      <point x="1106" y="0" type="line"/>
      <point x="1126" y="160" type="line"/>
      <point x="748" y="160" type="line"/>
      <point x="748" y="1340" type="line"/>
      <point x="1106" y="1340" type="line"/>
      <point x="1106" y="1500" type="line"/>
      <point x="206" y="1500" type="line"/>
    </contour>
    <contour>
      <point x="357" y="1700" type="line"/>
      <point x="557" y="1700" type="line"/>
      <point x="557" y="1900" type="line"/>
      <point x="357" y="1900" type="line"/>
    </contour>
    <contour>
      <point x="757" y="1700" type="line"/>
      <point x="957" y="1700" type="line"/>
      <point x="957" y="1900" type="line"/>
      <point x="757" y="1900" type="line"/>
    </contour>
  </outline>
</glyph>
<glyph name="Ntilde" format="2">
  <advance width="1300"/>
  <unicode hex="00D1"/>
  <outline>
    <contour>
      <point x="473" y="1652" type="line"/>
      <point x="484" y="1692"/>
      <point x="516" y="1740"/>
      <point x="563" y="1740" type="curve" smooth="yes"/>
      <point x="657" y="1740"/>
      <point x="738" y="1651"/>
      <point x="822" y="1651" type="curve" smooth="yes"/>
      <point x="926" y="1651"/>
      <point x="1009" y="1761"/>
      <point x="1017" y="1878" type="curve"/>
      <point x="921" y="1882" type="line"/>
      <point x="913" y="1835"/>
      <point x="885" y="1774"/>
      <point x="829" y="1774" type="curve" smooth="yes"/>
      <point x="746" y="1774"/>
      <point x="673" y="1864"/>
      <point x="569" y="1864" type="curve" smooth="yes"/>
      <point x="474" y="1864"/>
      <point x="398" y="1763"/>
      <point x="387" y="1655" type="curve"/>
    </contour>
    <contour>
      <point x="1110" y="0" type="line"/>
      <point x="1110" y="1520" type="line"/>
      <point x="930" y="1500" type="line"/>
      <point x="930" y="580" type="line"/>
      <point x="1009" y="141" type="line"/>
      <point x="1003" y="140" type="line"/>
      <point x="837" y="557" type="line"/>
      <point x="341" y="1520" type="line"/>
      <point x="140" y="1500" type="line"/>
      <point x="170" y="1290" type="line"/>
      <point x="170" y="0" type="line"/>
      <point x="350" y="0" type="line"/>
      <point x="350" y="920" type="line"/>
      <point x="285" y="1360" type="line"/>
      <point x="291" y="1361" type="line"/>
      <point x="450" y="948" type="line"/>
      <point x="945" y="0" type="line"/>
    </contour>
  </outline>
</glyph>
<glyph name="Ocircumflex" format="2">
  <advance width="1300"/>
  <unicode hex="00D4"/>
  <outline>
    <contour>
      <point x="695" y="1920" type="line"/>
      <point x="495" y="1900" type="line"/>
      <point x="319" y="1620" type="line"/>
      <point x="469" y="1620" type="line"/>
      <point x="570" y="1773" type="line"/>
      <point x="600" y="1860" type="line"/>
      <point x="630" y="1772" type="line"/>
      <point x="730" y="1620" type="line"/>
      <point x="880" y="1620" type="line"/>
    </contour>
    <contour>
      <point x="623" y="-17" type="curve" smooth="yes"/>
      <point x="993" y="-17"/>
      <point x="1173" y="330"/>
      <point x="1173" y="750" type="curve" smooth="yes"/>
      <point x="1173" y="1170"/>
      <point x="983" y="1517"/>
      <point x="623" y="1517" type="curve" smooth="yes"/>
      <point x="253" y="1517"/>
      <point x="73" y="1170"/>
      <point x="73" y="750" type="curve" smooth="yes"/>
      <point x="73" y="330"/>
      <point x="263" y="-17"/>
    </contour>
    <contour>
      <point x="965" y="719" type="curve" smooth="yes"/>
      <point x="965" y="476"/>
      <point x="914" y="158"/>
      <point x="629" y="158" type="curve" smooth="yes"/>
      <point x="325" y="158"/>
      <point x="281" y="502"/>
      <point x="281" y="785" type="curve" smooth="yes"/>
      <point x="281" y="1030"/>
      <point x="329" y="1342"/>
      <point x="617" y="1342" type="curve" smooth="yes"/>
      <point x="921" y="1342"/>
      <point x="965" y="998"/>
    </contour>
  </outline>
</glyph>
<glyph name="Ugrave" format="2">
  <advance width="1300"/>
  <unicode hex="00D9"/>
  <outline>
    <contour>
      <point x="589" y="1920" type="line"/>
      <point x="385" y="1900" type="line"/>
      <point x="610" y="1600" type="line"/>
      <point x="760" y="1600" type="line"/>
    </contour>
    <contour>
      <point x="925" y="1500" type="line"/>
      <point x="925" y="504" type="line" smooth="yes"/>
      <point x="925" y="269"/>
      <point x="841" y="153"/>
      <point x="645" y="153" type="curve" smooth="yes"/>
      <point x="477" y="153"/>
      <point x="375" y="301"/>
      <point x="375" y="554" type="curve" smooth="yes"/>
      <point x="375" y="1520" type="line"/>
      <point x="155" y="1500" type="line"/>
      <point x="185" y="1290" type="line"/>
      <point x="185" y="573" type="line" smooth="yes"/>
      <point x="185" y="220"/>
      <point x="310" y="-17"/>
      <point x="635" y="-17" type="curve" smooth="yes"/>
      <point x="938" y="-17"/>
      <point x="1115" y="160"/>
      <point x="1115" y="523" type="curve" smooth="yes"/>
      <point x="1115" y="1500" type="line"/>
    </contour>
  </outline>
</glyph>
<glyph name="Ucircumflex" format="2">
  <advance width="1300"/>
  <unicode hex="00DB"/>
  <outline>
    <contour>
      <point x="745" y="1920" type="line"/>
      <point x="545" y="1900" type="line"/>
      <point x="369" y="1620" type="line"/>
      <point x="519" y="1620" type="line"/>
      <point x="620" y="1773" type="line"/>
      <point x="650" y="1860" type="line"/>
      <point x="680" y="1772" type="line"/>
      <point x="780" y="1620" type="line"/>
      <point x="930" y="1620" type="line"/>
    </contour>
    <contour>
      <point x="925" y="1500" type="line"/>
      <point x="925" y="504" type="line" smooth="yes"/>
      <point x="925" y="269"/>
      <point x="841" y="153"/>
      <point x="645" y="153" type="curve" smooth="yes"/>
      <point x="477" y="153"/>
      <point x="375" y="301"/>
      <point x="375" y="554" type="curve" smooth="yes"/>
      <point x="375" y="1520" type="line"/>
      <point x="155" y="1500" type="line"/>
      <point x="185" y="1290" type="line"/>
      <point x="185" y="573" type="line" smooth="yes"/>
      <point x="185" y="220"/>
      <point x="310" y="-17"/>
      <point x="635" y="-17" type="curve" smooth="yes"/>
      <point x="938" y="-17"/>
      <point x="1115" y="160"/>
      <point x="1115" y="523" type="curve" smooth="yes"/>
      <point x="1115" y="1500" type="line"/>
    </contour>
  </outline>
</glyph>
<glyph name="aacute" format="2">
  <advance width="1300"/>
  <unicode hex="00E1"/>
  <outline>
    <contour>
      <point x="590" y="1200" type="line"/>
      <point x="740" y="1200" type="line"/>
      <point x="980" y="1520" type="line"/>
      <point x="750" y="1500" type="line"/>
    </contour>
    <contour>
      <point x="1090" y="180" type="line"/>
      <point x="1090" y="690" type="line" smooth="yes"/>
      <point x="1090" y="945"/>
      <point x="973" y="1117"/>
      <point x="665" y="1117" type="curve" smooth="yes"/>
      <point x="546" y="1117"/>
      <point x="469" y="1099"/>
      <point x="405" y="1080" type="curve" smooth="yes"/>
      <point x="366" y="1069"/>
      <point x="333" y="1057"/>
      <point x="305" y="1044" type="curve"/>
      <point x="377" y="910" type="line"/>
      <point x="404" y="918"/>
      <point x="431" y="926"/>
      <point x="462" y="933" type="curve" smooth="yes"/>
      <point x="514" y="945"/>
      <point x="571" y="957"/>
      <point x="655" y="957" type="curve" smooth="yes"/>
      <point x="835" y="957"/>
      <point x="910" y="863"/>
      <point x="910" y="705" type="curve" smooth="yes"/>
      <point x="910" y="662" type="line"/>
      <point x="843" y="687"/>
      <point x="752" y="702"/>
      <point x="625" y="702" type="curve" smooth="yes"/>
      <point x="400" y="702"/>
      <point x="170" y="592"/>
      <point x="170" y="344" type="curve" smooth="yes"/>
      <point x="170" y="109"/>
      <point x="396" y="-17"/>
      <point x="596" y="-17" type="curve" smooth="yes"/>
      <point x="669" y="-17"/>
      <point x="770" y="15"/>
      <point x="816" y="50" type="curve"/>
      <point x="910" y="162" type="line"/>
      <point x="910" y="0" type="line" name=".hr01"/>
      <point x="1110" y="0" type="line"/>
    </contour>
    <contour>
      <point x="910" y="274" type="line"/>
      <point x="823" y="194"/>
      <point x="728" y="143" name=".hr02"/>
      <point x="604" y="143" type="curve" smooth="yes"/>
      <point x="479" y="143"/>
      <point x="363" y="225"/>
      <point x="363" y="345" type="curve" smooth="yes"/>
      <point x="363" y="493"/>
      <point x="517" y="542"/>
      <point x="665" y="542" type="curve" smooth="yes"/>
      <point x="678" y="542"/>
      <point x="693" y="542"/>
      <point x="711" y="541" type="curve"/>
      <point x="719" y="541" type="line"/>
      <point x="721" y="541" type="line"/>
      <point x="724" y="540"/>
      <point x="727" y="540"/>
      <point x="730" y="540" type="curve" smooth="yes"/>
      <point x="732" y="540" type="line"/>
      <point x="741" y="540" type="line"/>
      <point x="742" y="540" type="line"/>
      <point x="745" y="540"/>
      <point x="748" y="540"/>
      <point x="751" y="539" type="curve"/>
      <point x="753" y="539" type="line"/>
      <point x="762" y="539" type="line"/>
      <point x="764" y="539" type="line"/>
      <point x="799" y="538"/>
      <point x="831" y="534"/>
      <point x="850" y="533" type="curve"/>
      <point x="910" y="525" type="line"/>
    </contour>
  </outline>
</glyph>
<glyph name="ae" format="2">
  <advance width="1300"/>
  <unicode hex="00E6"/>
  <outline>
    <contour>
      <point x="1245" y="650" type="curve" smooth="yes"/>
      <point x="1245" y="955"/>
      <point x="1193" y="1117"/>
      <point x="905" y="1117" type="curve" smooth="yes"/>
      <point x="760" y="1117"/>
      <point x="672" y="1045"/>
      <point x="648" y="962" type="curve"/>
      <point x="624" y="1045"/>
      <point x="562" y="1117"/>
      <point x="450" y="1117" type="curve" smooth="yes"/>
      <point x="363" y="1117"/>
      <point x="287" y="1099"/>
      <point x="231" y="1080" type="curve" smooth="yes"/>
      <point x="198" y="1069"/>
      <point x="168" y="1057"/>
      <point x="140" y="1044" type="curve"/>
      <point x="212" y="910" type="line"/>
      <point x="229" y="918"/>
      <point x="248" y="926"/>
      <point x="268" y="933" type="curve" smooth="yes"/>
      <point x="303" y="945"/>
      <point x="346" y="957"/>
      <point x="390" y="957" type="curve" smooth="yes"/>
      <point x="515" y="957"/>
      <point x="515" y="863"/>
      <point x="515" y="705" type="curve" smooth="yes"/>
      <point x="515" y="670" type="line"/>
      <point x="513" y="677"/>
      <point x="506" y="684"/>
      <point x="494" y="690" type="curve"/>
      <point x="474" y="701"/>
      <point x="436" y="710" name=".hr01"/>
      <point x="360" y="710" type="curve" smooth="yes"/>
      <point x="176" y="710"/>
      <point x="55" y="591"/>
      <point x="55" y="344" type="curve" smooth="yes"/>
      <point x="55" y="109"/>
      <point x="180" y="-17"/>
      <point x="381" y="-17" type="curve" smooth="yes"/>
      <point x="538" y="-17"/>
      <point x="604" y="77"/>
      <point x="647" y="189" type="curve"/>
      <point x="682" y="77"/>
      <point x="781" y="-17"/>
      <point x="923" y="-17" type="curve" smooth="yes"/>
      <point x="1102" y="-17"/>
      <point x="1170" y="49"/>
      <point x="1236" y="129" type="curve"/>
      <point x="1107" y="225" type="line"/>
      <point x="1091" y="201"/>
      <point x="1026" y="143"/>
      <point x="925" y="143" type="curve" smooth="yes"/>
      <point x="804" y="143"/>
      <point x="745" y="300"/>
      <point x="745" y="500" type="curve" name=".hr02"/>
      <point x="1225" y="500" type="line"/>
      <point x="1236" y="527"/>
      <point x="1245" y="601"/>
    </contour>
    <contour>
      <point x="1067" y="650" type="line"/>
      <point x="797" y="650" type="line"/>
      <point x="675" y="623" type="line"/>
      <point x="744" y="732" type="line"/>
      <point x="744" y="844"/>
      <point x="781" y="957"/>
      <point x="911" y="957" type="curve" smooth="yes"/>
      <point x="1031" y="957"/>
      <point x="1067" y="854"/>
      <point x="1067" y="730" type="curve" smooth="yes"/>
    </contour>
    <contour>
      <point x="515" y="274" type="line"/>
      <point x="510" y="249"/>
      <point x="502" y="227"/>
      <point x="491" y="208" type="curve" smooth="yes"/>
      <point x="472" y="175"/>
      <point x="440" y="143"/>
      <point x="389" y="143" type="curve" smooth="yes"/>
      <point x="279" y="143"/>
      <point x="235" y="225"/>
      <point x="235" y="345" type="curve" smooth="yes"/>
      <point x="235" y="494"/>
      <point x="302" y="550"/>
      <point x="426" y="550" type="curve" smooth="yes" name=".hr03"/>
      <point x="457" y="550"/>
      <point x="479" y="545"/>
      <point x="494" y="541" type="curve"/>
      <point x="502" y="538"/>
      <point x="509" y="536"/>
      <point x="515" y="533" type="curve"/>
    </contour>
  </outline>
</glyph>
<glyph name="ocircumflex" format="2">
  <advance width="1300"/>
  <unicode hex="00F4"/>
  <outline>
    <contour>
      <point x="745" y="1520" type="line"/>
      <point x="545" y="1500" type="line"/>
      <point x="369" y="1220" type="line"/>
      <point x="519" y="1220" type="line"/>
      <point x="620" y="1373" type="line"/>
      <point x="650" y="1460" type="line"/>
      <point x="680" y="1372" type="line"/>
      <point x="780" y="1220" type="line"/>
      <point x="930" y="1220" type="line"/>
    </contour>
    <contour>
      <point x="649" y="-17" type="curve" smooth="yes"/>
      <point x="954" y="-17"/>
      <point x="1145" y="229"/>
      <point x="1145" y="553" type="curve" smooth="yes"/>
      <point x="1145" y="877"/>
      <point x="944" y="1117"/>
      <point x="649" y="1117" type="curve" smooth="yes"/>
      <point x="344" y="1117"/>
      <point x="144" y="877"/>
      <point x="144" y="553" type="curve" smooth="yes"/>
      <point x="144" y="229"/>
      <point x="354" y="-17"/>
    </contour>
    <contour>
      <point x="955" y="526" type="curve" smooth="yes"/>
      <point x="955" y="330"/>
      <point x="865" y="138"/>
      <point x="653" y="138" type="curve" smooth="yes"/>
      <point x="429" y="138"/>
      <point x="334" y="356"/>
      <point x="334" y="572" type="curve" smooth="yes"/>
      <point x="334" y="769"/>
      <point x="431" y="962"/>
      <point x="645" y="962" type="curve" smooth="yes"/>
      <point x="869" y="962"/>
      <point x="955" y="741"/>
    </contour>
  </outline>
</glyph>
<glyph name="ugrave" format="2">
  <advance width="1300"/>
  <unicode hex="00F9"/>
  <outline>
    <contour>
      <point x="616" y="1520" type="line"/>
      <point x="412" y="1500" type="line"/>
      <point x="637" y="1200" type="line"/>
      <point x="787" y="1200" type="line"/>
    </contour>
    <contour>
      <point x="930" y="300" type="line"/>
      <point x="904" y="248"/>
      <point x="815" y="148"/>
      <point x="662" y="148" type="curve" smooth="yes"/>
      <point x="453" y="148"/>
      <point x="390" y="257"/>
      <point x="390" y="430" type="curve" smooth="yes"/>
      <point x="390" y="1120" type="line"/>
      <point x="210" y="1100" type="line"/>
      <point x="210" y="430" type="line" smooth="yes"/>
      <point x="210" y="200"/>
      <point x="311" y="-17"/>
      <point x="634" y="-17" type="curve" smooth="yes"/>
      <point x="760" y="-17"/>
      <point x="846" y="44"/>
      <point x="869" y="73" type="curve"/>
      <point x="930" y="180" type="line"/>
      <point x="930" y="0" type="line" name=".hr01"/>
      <point x="1110" y="0" type="line"/>
      <point x="1110" y="1120" type="line"/>
      <point x="930" y="1100" type="line"/>
    </contour>
  </outline>
</glyph>
<glyph name="uacute" format="2">
  <advance width="1300"/>
  <unicode hex="00FA"/>
  <outline>
    <contour>
      <point x="505" y="1200" type="line"/>
      <point x="655" y="1200" type="line"/>
      <point x="895" y="1520" type="line"/>
      <point x="665" y="1500" type="line"/>
    </contour>
    <contour>
      <point x="930" y="300" type="line"/>
      <point x="904" y="248"/>
      <point x="815" y="148"/>
      <point x="662" y="148" type="curve" smooth="yes"/>
      <point x="453" y="148"/>
      <point x="390" y="257"/>
      <point x="390" y="430" type="curve" smooth="yes"/>
      <point x="390" y="1120" type="line"/>
      <point x="210" y="1100" type="line"/>
      <point x="210" y="430" type="line" smooth="yes"/>
      <point x="210" y="200"/>
      <point x="311" y="-17"/>
      <point x="634" y="-17" type="curve" smooth="yes"/>
      <point x="760" y="-17"/>
      <point x="846" y="44"/>
      <point x="869" y="73" type="curve"/>
      <point x="930" y="180" type="line"/>
      <point x="930" y="0" type="line" name=".hr01"/>
      <point x="1110" y="0" type="line"/>
      <point x="1110" y="1120" type="line"/>
      <point x="930" y="1100" type="line"/>
    </contour>
  </outline>
</glyph>
<glyph name="udieresis" format="2">
  <advance width="1300"/>
  <unicode hex="00FC"/>
  <outline>
    <contour>
      <point x="350" y="1300" type="line"/>
      <point x="550" y="1300" type="line"/>
      <point x="550" y="1500" type="line"/>
      <point x="350" y="1500" type="line"/>
    </contour>
    <contour>
      <point x="750" y="1300" type="line"/>
      <point x="950" y="1300" type="line"/>
      <point x="950" y="1500" type="line"/>
      <point x="750" y="1500" type="line"/>
    </contour>
    <contour>
      <point x="930" y="300" type="line"/>
      <point x="904" y="248"/>
      <point x="815" y="148"/>
      <point x="662" y="148" type="curve" smooth="yes"/>
      <point x="453" y="148"/>
      <point x="390" y="257"/>
      <point x="390" y="430" type="curve" smooth="yes"/>
      <point x="390" y="1120" type="line"/>
      <point x="210" y="1100" type="line"/>
      <point x="210" y="430" type="line" smooth="yes"/>
      <point x="210" y="200"/>
      <point x="311" y="-17"/>
      <point x="634" y="-17" type="curve" smooth="yes"/>
      <point x="760" y="-17"/>
      <point x="846" y="44"/>
      <point x="869" y="73" type="curve"/>
      <point x="930" y="180" type="line"/>
      <point x="930" y="0" type="line"/>
      <point x="1110" y="0" type="line"/>
      <point x="1110" y="1120" type="line"/>
      <point x="930" y="1100" type="line"/>
    </contour>
  </outline>
</glyph>
<glyph name="OE" format="2">
  <advance width="1300"/>
  <unicode hex="0152"/>
  <outline>
    <contour>
      <point x="685" y="70" type="line"/>
      <point x="675" y="0" type="line"/>
      <point x="1315" y="0" type="line"/>
      <point x="1335" y="160" type="line"/>
      <point x="895" y="160" type="line"/>
      <point x="905" y="340" type="line"/>
      <point x="905" y="740" type="line"/>
      <point x="1230" y="740" type="line"/>
      <point x="1230" y="885" type="line"/>
      <point x="905" y="885" type="line"/>
      <point x="905" y="1150" type="line"/>
      <point x="885" y="1340" type="line"/>
      <point x="1300" y="1340" type="line"/>
      <point x="1300" y="1500" type="line"/>
      <point x="675" y="1500" type="line"/>
      <point x="685" y="1430" type="line"/>
      <point x="555" y="1517" type="line"/>
      <point x="251" y="1517"/>
      <point x="29" y="1299"/>
      <point x="29" y="750" type="curve" smooth="yes"/>
      <point x="29" y="200"/>
      <point x="251" y="-17"/>
      <point x="555" y="-17" type="curve"/>
    </contour>
    <contour>
      <point x="695" y="190" type="line"/>
      <point x="650" y="159"/>
      <point x="616" y="153"/>
      <point x="561" y="153" type="curve" smooth="yes"/>
      <point x="350" y="153"/>
      <point x="237" y="350"/>
      <point x="237" y="785" type="curve" smooth="yes"/>
      <point x="237" y="1152"/>
      <point x="349" y="1347"/>
      <point x="549" y="1347" type="curve" smooth="yes"/>
      <point x="605" y="1347"/>
      <point x="659" y="1332"/>
      <point x="695" y="1305" type="curve"/>
    </contour>
  </outline>
</glyph>
<glyph name="Sigma" format="2">
  <advance width="1300"/>
  <unicode hex="03A3"/>
  <outline>
    <contour>
      <point x="830" y="800" type="line"/>
      <point x="473" y="1183" type="line"/>
      <point x="246" y="1375" type="line"/>
      <point x="495" y="1330" type="line"/>
      <point x="1101" y="1330" type="line"/>
      <point x="1101" y="1500" type="line"/>
      <point x="80" y="1500" type="line"/>
      <point x="100" y="1317" type="line"/>
      <point x="600" y="800" type="line"/>
      <point x="753" y="750" type="line"/>
      <point x="600" y="700" type="line"/>
      <point x="100" y="183" type="line"/>
      <point x="80" y="0" type="line"/>
      <point x="1101" y="0" type="line"/>
      <point x="1101" y="170" type="line"/>
      <point x="495" y="170" type="line"/>
      <point x="246" y="125" type="line"/>
      <point x="473" y="317" type="line"/>
      <point x="830" y="700" type="line"/>
    </contour>
  </outline>
</glyph>
<glyph name="Tau" format="2">
  <advance width="1300"/>
  <unicode hex="03A4"/>
  <outline>
    <contour>
      <point x="745" y="0" type="line"/>
      <point x="745" y="1340" type="line"/>
      <point x="1165" y="1340" type="line"/>
      <point x="1165" y="1500" type="line"/>
      <point x="130" y="1500" type="line"/>
      <point x="130" y="1340" type="line"/>
      <point x="555" y="1340" type="line"/>
      <point x="555" y="0" type="line"/>
    </contour>
  </outline>
</glyph>
<glyph name="Upsilon" format="2">
  <advance width="1300"/>
  <unicode hex="03A5"/>
  <outline>
    <contour>
      <point x="630" y="705" type="line"/>
      <point x="551" y="954" type="line"/>
      <point x="263" y="1520" type="line"/>
      <point x="59" y="1500" type="line"/>
      <point x="495" y="645" type="line"/>
      <point x="495" y="0" type="line"/>
      <point x="705" y="0" type="line"/>
      <point x="705" y="646" type="line"/>
      <point x="1140" y="1500" type="line"/>
      <point x="948" y="1500" type="line"/>
      <point x="660" y="935" type="line"/>
    </contour>
  </outline>
</glyph>
<glyph name="Psi" format="2">
  <advance width="1300"/>
  <unicode hex="03A8"/>
  <outline>
    <contour>
      <point x="500" y="1500" type="line"/>
      <point x="500" y="608" type="line"/>
      <point x="349" y="626"/>
      <point x="285" y="696"/>
      <point x="285" y="904" type="curve" smooth="yes"/>
      <point x="285" y="1520" type="line"/>
      <point x="50" y="1500" type="line"/>
      <point x="80" y="1290" type="line"/>
      <point x="80" y="923" type="line" smooth="yes"/>
      <point x="80" y="601"/>
      <point x="213" y="459"/>
      <point x="500" y="436" type="curve"/>
      <point x="500" y="1" type="line"/>
      <point x="700" y="1" type="line"/>
      <point x="700" y="437" type="line"/>
      <point x="967" y="457"/>
      <point x="1120" y="555"/>
      <point x="1120" y="873" type="curve" smooth="yes"/>
      <point x="1120" y="1500" type="line"/>
      <point x="915" y="1500" type="line"/>
      <point x="915" y="854" type="line" smooth="yes"/>
      <point x="915" y="661"/>
      <point x="863" y="615"/>
      <point x="700" y="605" type="curve"/>
      <point x="700" y="1520" type="line"/>
    </contour>
  </outline>
</glyph>
<glyph name="epsilon" format="2">
  <advance width="1300"/>
  <unicode hex="03B5"/>
  <outline>
    <contour>
      <point x="646" y="633" type="line" smooth="yes"/>
      <point x="547" y="633"/>
      <point x="460" y="705"/>
      <point x="460" y="791" type="curve" smooth="yes"/>
      <point x="460" y="885"/>
      <point x="567" y="963"/>
      <point x="715" y="963" type="curve" smooth="yes"/>
      <point x="815" y="963"/>
      <point x="898" y="944"/>
      <point x="898" y="944" type="curve"/>
      <point x="954" y="1064" type="line"/>
      <point x="954" y="1064"/>
      <point x="825" y="1117"/>
      <point x="675" y="1117" type="curve" smooth="yes"/>
      <point x="491" y="1117"/>
      <point x="270" y="1033"/>
      <point x="270" y="810" type="curve" smooth="yes"/>
      <point x="270" y="696"/>
      <point x="321" y="615"/>
      <point x="399" y="564" type="curve"/>
      <point x="321" y="511"/>
      <point x="270" y="427"/>
      <point x="270" y="313" type="curve" smooth="yes"/>
      <point x="270" y="90"/>
      <point x="491" y="-17"/>
      <point x="675" y="-17" type="curve" smooth="yes"/>
      <point x="956" y="-17"/>
      <point x="1045" y="99"/>
      <point x="1045" y="99" type="curve"/>
      <point x="955" y="200" type="line"/>
      <point x="955" y="200"/>
      <point x="872" y="137"/>
      <point x="715" y="137" type="curve" smooth="yes"/>
      <point x="567" y="137"/>
      <point x="460" y="208"/>
      <point x="460" y="312" type="curve" smooth="yes"/>
      <point x="460" y="417"/>
      <point x="549" y="500"/>
      <point x="646" y="500" type="curve" smooth="yes"/>
      <point x="900" y="500" type="line"/>
      <point x="920" y="633" type="line"/>
    </contour>
  </outline>
</glyph>
<glyph name="theta" format="2">
  <advance width="1300"/>
  <unicode hex="03B8"/>
  <outline>
    <contour>
      <point x="917" y="670" type="line"/>
      <point x="890" y="392"/>
      <point x="803" y="146"/>
      <point x="600" y="146" type="curve" smooth="yes"/>
      <point x="380" y="146"/>
      <point x="297" y="437"/>
      <point x="282" y="670" type="curve"/>
    </contour>
    <contour>
      <point x="282" y="820" type="line"/>
      <point x="294" y="1056"/>
      <point x="378" y="1354"/>
      <point x="600" y="1354" type="curve" smooth="yes"/>
      <point x="822" y="1354"/>
      <point x="906" y="1056"/>
      <point x="918" y="820" type="curve"/>
    </contour>
    <contour>
      <point x="600" y="-17" type="curve" smooth="yes"/>
      <point x="970" y="-17"/>
      <point x="1100" y="401"/>
      <point x="1100" y="750" type="curve" smooth="yes"/>
      <point x="1100" y="1101"/>
      <point x="970" y="1517"/>
      <point x="600" y="1517" type="curve" smooth="yes"/>
      <point x="229" y="1517"/>
      <point x="100" y="1101"/>
      <point x="100" y="750" type="curve" smooth="yes"/>
      <point x="100" y="400"/>
      <point x="230" y="-17"/>
    </contour>
  </outline>
</glyph>
<glyph name="iota" format="2">
  <advance width="1300"/>
  <unicode hex="03B9"/>
  <outline>
    <contour>
      <point x="500" y="403" type="line" smooth="yes"/>
      <point x="500" y="165"/>
      <point x="529" y="-17"/>
      <point x="800" y="-17" type="curve" smooth="yes"/>
      <point x="851" y="-17"/>
      <point x="896" y="-4"/>
      <point x="919" y="8" type="curve"/>
      <point x="850" y="134" type="line"/>
      <point x="842" y="131"/>
      <point x="829" y="129"/>
      <point x="800" y="129" type="curve" smooth="yes"/>
      <point x="741" y="129"/>
      <point x="702" y="175"/>
      <point x="695" y="267" type="curve" smooth="yes"/>
      <point x="692" y="314"/>
      <point x="690" y="354"/>
      <point x="690" y="389" type="curve" smooth="yes"/>
      <point x="690" y="1120" type="line"/>
      <point x="480" y="1100" type="line"/>
      <point x="500" y="902" type="line"/>
    </contour>
  </outline>
</glyph>
<glyph name="nu" format="2">
  <advance width="1300"/>
  <unicode hex="03BD"/>
  <outline>
    <contour>
      <point x="774" y="0" type="line"/>
      <point x="1156" y="1100" type="line"/>
      <point x="965" y="1100" type="line"/>
      <point x="688" y="295" type="line"/>
      <point x="640" y="75" type="line"/>
      <point x="594" y="295" type="line"/>
      <point x="317" y="1100" type="line"/>
      <point x="124" y="1100" type="line"/>
      <point x="507" y="0" type="line"/>
    </contour>
  </outline>
</glyph>
<glyph name="sigma" format="2">
  <advance width="1300"/>
  <unicode hex="03C3"/>
  <outline>
    <contour>
      <point x="270" y="551" type="curve" smooth="yes"/>
      <point x="270" y="755"/>
      <point x="375" y="981"/>
      <point x="600" y="981" type="curve" smooth="yes"/>
      <point x="825" y="981"/>
      <point x="930" y="759"/>
      <point x="930" y="551" type="curve" smooth="yes"/>
      <point x="930" y="346"/>
      <point x="825" y="123"/>
      <point x="600" y="123" type="curve" smooth="yes"/>
      <point x="375" y="123"/>
      <point x="270" y="346"/>
    </contour>
    <contour>
      <point x="100" y="551" type="curve" smooth="yes"/>
      <point x="100" y="254"/>
      <point x="251" y="-17"/>
      <point x="600" y="-17" type="curve" smooth="yes"/>
      <point x="949" y="-17"/>
      <point x="1100" y="240"/>
      <point x="1100" y="551" type="curve" smooth="yes"/>
      <point x="1100" y="660"/>
      <point x="1081" y="762"/>
      <point x="1038" y="853" type="curve"/>
      <point x="933" y="995" type="line"/>
      <point x="1100" y="980" type="line"/>
      <point x="1200" y="980" type="line"/>
      <point x="1200" y="1120" type="line"/>
      <point x="600" y="1120" type="line" smooth="yes"/>
      <point x="251" y="1120"/>
      <point x="100" y="851"/>
    </contour>
  </outline>
</glyph>
<glyph name="tau" format="2">
  <advance width="1300"/>
  <unicode hex="03C4"/>
  <outline>
    <contour>
      <point x="1080" y="942" type="line"/>
      <point x="1100" y="1100" type="line"/>
      <point x="220" y="1100" type="line"/>
      <point x="200" y="942" type="line"/>
      <point x="567" y="942" type="line"/>
      <point x="567" y="303" type="line" smooth="yes"/>
      <point x="567" y="150"/>
      <point x="582" y="47"/>
      <point x="647" y="0" type="curve"/>
      <point x="858" y="0" type="line"/>
      <point x="779" y="108"/>
      <point x="759" y="164"/>
      <point x="759" y="265" type="curve" smooth="yes"/>
      <point x="759" y="942" type="line"/>
    </contour>
  </outline>
</glyph>
<glyph name="uni03D2" format="2">
  <advance width="1300"/>
  <unicode hex="03D2"/>
  <outline>
    <contour>
      <point x="1181" y="1517" type="line"/>
      <point x="1081" y="1517"/>
      <point x="1006" y="1504"/>
      <point x="914" y="1340" type="curve" smooth="yes"/>
      <point x="724" y="1000" type="line"/>
      <point x="651" y="751" type="line"/>
      <point x="570" y="1000" type="line"/>
      <point x="380" y="1340" type="line" smooth="yes"/>
      <point x="288" y="1504"/>
      <point x="213" y="1517"/>
      <point x="113" y="1517" type="curve"/>
      <point x="113" y="1387" type="line"/>
      <point x="113" y="1387"/>
      <point x="194" y="1384"/>
      <point x="241" y="1289" type="curve" smooth="yes"/>
      <point x="551" y="658" type="line"/>
      <point x="551" y="0" type="line"/>
      <point x="743" y="0" type="line"/>
      <point x="743" y="658" type="line"/>
      <point x="1053" y="1289" type="line" smooth="yes"/>
      <point x="1100" y="1384"/>
      <point x="1181" y="1387"/>
      <point x="1181" y="1387" type="curve"/>
    </contour>
  </outline>
</glyph>
<glyph name="quoteleft" format="2">
  <advance width="1300"/>
  <unicode hex="2018"/>
  <outline>
    <contour>
      <point x="424" y="1095" type="curve" smooth="yes"/>
      <point x="424" y="1171"/>
      <point x="368" y="1213"/>
      <point x="312" y="1216" type="curve"/>
      <point x="312" y="1265"/>
      <point x="329" y="1320"/>
      <point x="346" y="1364" type="curve" smooth="yes"/>
      <point x="356" y="1390"/>
      <point x="367" y="1415"/>
      <point x="380" y="1440" type="curve"/>
      <point x="336" y="1460" type="line"/>
      <point x="196" y="1331"/>
      <point x="175" y="1226"/>
      <point x="175" y="1109" type="curve" smooth="yes"/>
      <point x="175" y="1020"/>
      <point x="234" y="974"/>
      <point x="300" y="974" type="curve" smooth="yes"/>
      <point x="367" y="974"/>
      <point x="424" y="1028"/>
    </contour>
  </outline>
</glyph>
<glyph name="quotedblleft" format="2">
  <advance width="1300"/>
  <unicode hex="201C"/>
  <outline>
    <contour>
      <point x="424" y="1095" type="curve" smooth="yes"/>
      <point x="424" y="1171"/>
      <point x="368" y="1213"/>
      <point x="312" y="1216" type="curve"/>
      <point x="312" y="1265"/>
      <point x="329" y="1320"/>
      <point x="346" y="1364" type="curve" smooth="yes"/>
      <point x="356" y="1390"/>
      <point x="367" y="1415"/>
      <point x="380" y="1440" type="curve"/>
      <point x="336" y="1460" type="line" name=".hr01"/>
      <point x="196" y="1331"/>
      <point x="175" y="1226"/>
      <point x="175" y="1109" type="curve" smooth="yes"/>
      <point x="175" y="1020"/>
      <point x="234" y="974"/>
      <point x="300" y="974" type="curve" smooth="yes"/>
      <point x="367" y="974"/>
      <point x="424" y="1028"/>
    </contour>
    <contour>
      <point x="824" y="1095" type="curve" smooth="yes"/>
      <point x="824" y="1171"/>
      <point x="768" y="1213"/>
      <point x="712" y="1216" type="curve"/>
      <point x="712" y="1265" name=".hr02"/>
      <point x="729" y="1320"/>
      <point x="746" y="1364" type="curve" smooth="yes"/>
      <point x="756" y="1390"/>
      <point x="767" y="1415"/>
      <point x="780" y="1440" type="curve"/>
      <point x="736" y="1460" type="line"/>
      <point x="596" y="1331" name=".hr03"/>
      <point x="575" y="1226"/>
      <point x="575" y="1109" type="curve" smooth="yes"/>
      <point x="575" y="1020"/>
      <point x="634" y="974"/>
      <point x="700" y="974" type="curve" smooth="yes"/>
      <point x="767" y="974"/>
      <point x="824" y="1028"/>
    </contour>
  </outline>
</glyph>
<glyph name="quotedblright" format="2">
  <advance width="1300"/>
  <unicode hex="201D"/>
  <outline>
    <contour>
      <point x="176" y="1305" type="curve" smooth="yes"/>
      <point x="176" y="1229"/>
      <point x="232" y="1187"/>
      <point x="288" y="1184" type="curve"/>
      <point x="288" y="1135"/>
      <point x="271" y="1080"/>
      <point x="254" y="1036" type="curve" smooth="yes"/>
      <point x="244" y="1010"/>
      <point x="233" y="985"/>
      <point x="220" y="960" type="curve"/>
      <point x="264" y="940" type="line" name=".hr01"/>
      <point x="404" y="1069"/>
      <point x="425" y="1174"/>
      <point x="425" y="1291" type="curve" smooth="yes"/>
      <point x="425" y="1380"/>
      <point x="366" y="1426"/>
      <point x="300" y="1426" type="curve" smooth="yes"/>
      <point x="233" y="1426"/>
      <point x="176" y="1372"/>
    </contour>
    <contour>
      <point x="576" y="1305" type="curve" smooth="yes"/>
      <point x="576" y="1229"/>
      <point x="632" y="1187"/>
      <point x="688" y="1184" type="curve"/>
      <point x="688" y="1135" name=".hr02"/>
      <point x="671" y="1080"/>
      <point x="654" y="1036" type="curve" smooth="yes"/>
      <point x="644" y="1010"/>
      <point x="633" y="985"/>
      <point x="620" y="960" type="curve"/>
      <point x="664" y="940" type="line"/>
      <point x="804" y="1069" name=".hr03"/>
      <point x="825" y="1174"/>
      <point x="825" y="1291" type="curve" smooth="yes"/>
      <point x="825" y="1380"/>
      <point x="766" y="1426"/>
      <point x="700" y="1426" type="curve" smooth="yes"/>
      <point x="633" y="1426"/>
      <point x="576" y="1372"/>
    </contour>
  </outline>
</glyph>
<glyph name="daggerdbl" format="2">
  <advance width="1300"/>
  <unicode hex="2021"/>
  <outline>
    <contour>
      <point x="200" y="900" type="line"/>
      <point x="500" y="900" type="line"/>
      <point x="500" y="300" type="line"/>
      <point x="200" y="300" type="line"/>
      <point x="200" y="150" type="line"/>
      <point x="500" y="150" type="line"/>
      <point x="500" y="-400" type="line"/>
      <point x="700" y="-400" type="line"/>
      <point x="700" y="150" type="line"/>
      <point x="1000" y="150" type="line"/>
      <point x="1000" y="300" type="line"/>
      <point x="700" y="300" type="line"/>
      <point x="700" y="900" type="line"/>
      <point x="1000" y="900" type="line"/>
      <point x="1020" y="1049" type="line"/>
      <point x="700" y="1049" type="line"/>
      <point x="700" y="1520" type="line"/>
      <point x="500" y="1500" type="line"/>
      <point x="500" y="1049" type="line"/>
      <point x="200" y="1049" type="line"/>
    </contour>
  </outline>
</glyph>
<glyph name="perthousand" format="2">
  <advance width="2600"/>
  <unicode hex="2030"/>
  <outline>
    <contour>
      <point x="359" y="800" type="curve" smooth="yes"/>
      <point x="551" y="800"/>
      <point x="617" y="956"/>
      <point x="617" y="1162" type="curve" smooth="yes"/>
      <point x="617" y="1366"/>
      <point x="546" y="1517"/>
      <point x="359" y="1517" type="curve" smooth="yes"/>
      <point x="164" y="1517"/>
      <point x="100" y="1366"/>
      <point x="100" y="1162" type="curve" smooth="yes"/>
      <point x="100" y="956"/>
      <point x="171" y="800"/>
    </contour>
    <contour>
      <point x="1071" y="1500" type="line"/>
      <point x="905" y="1500" type="line"/>
      <point x="229" y="0" type="line"/>
      <point x="395" y="0" type="line"/>
    </contour>
    <contour>
      <point x="468" y="1105" type="line" smooth="yes"/>
      <point x="468" y="1019"/>
      <point x="459" y="944"/>
      <point x="363" y="944" type="curve" smooth="yes"/>
      <point x="261" y="944"/>
      <point x="252" y="1027"/>
      <point x="252" y="1123" type="curve" smooth="yes"/>
      <point x="252" y="1224" type="line" smooth="yes"/>
      <point x="252" y="1312"/>
      <point x="260" y="1386"/>
      <point x="358" y="1386" type="curve" smooth="yes"/>
      <point x="459" y="1386"/>
      <point x="468" y="1303"/>
      <point x="468" y="1210" type="curve" smooth="yes"/>
    </contour>
    <contour>
      <point x="1542" y="-17" type="curve" smooth="yes"/>
      <point x="1734" y="-17" name=".hr01"/>
      <point x="1800" y="139"/>
      <point x="1800" y="345" type="curve" smooth="yes"/>
      <point x="1800" y="549"/>
      <point x="1729" y="700"/>
      <point x="1542" y="700" type="curve" smooth="yes"/>
      <point x="1347" y="700"/>
      <point x="1283" y="549"/>
      <point x="1283" y="345" type="curve" smooth="yes"/>
      <point x="1283" y="139"/>
      <point x="1354" y="-17"/>
    </contour>
    <contour>
      <point x="942" y="-17" type="curve" smooth="yes"/>
      <point x="1134" y="-17"/>
      <point x="1200" y="139"/>
      <point x="1200" y="345" type="curve" smooth="yes"/>
      <point x="1200" y="549"/>
      <point x="1129" y="700"/>
      <point x="942" y="700" type="curve" smooth="yes"/>
      <point x="747" y="700"/>
      <point x="683" y="549"/>
      <point x="683" y="345" type="curve" smooth="yes"/>
      <point x="683" y="139"/>
      <point x="754" y="-17"/>
    </contour>
    <contour>
      <point x="1651" y="288" type="line" smooth="yes"/>
      <point x="1651" y="202"/>
      <point x="1642" y="127"/>
      <point x="1546" y="127" type="curve" smooth="yes"/>
      <point x="1444" y="127"/>
      <point x="1435" y="210"/>
      <point x="1435" y="306" type="curve" smooth="yes"/>
      <point x="1435" y="407" type="line" smooth="yes"/>
      <point x="1435" y="495"/>
      <point x="1443" y="569"/>
      <point x="1541" y="569" type="curve" smooth="yes"/>
      <point x="1642" y="569"/>
      <point x="1651" y="486"/>
      <point x="1651" y="393" type="curve" smooth="yes"/>
    </contour>
    <contour>
      <point x="1051" y="288" type="line" smooth="yes"/>
      <point x="1051" y="202"/>
      <point x="1042" y="127"/>
      <point x="946" y="127" type="curve" smooth="yes"/>
      <point x="844" y="127"/>
      <point x="835" y="210"/>
      <point x="835" y="306" type="curve" smooth="yes"/>
      <point x="835" y="407" type="line" smooth="yes"/>
      <point x="835" y="495"/>
      <point x="843" y="569"/>
      <point x="941" y="569" type="curve" smooth="yes"/>
      <point x="1042" y="569"/>
      <point x="1051" y="486"/>
      <point x="1051" y="393" type="curve" smooth="yes"/>
    </contour>
  </outline>
</glyph>
<glyph name="guilsinglleft" format="2">
  <advance width="1300"/>
  <unicode hex="2039"/>
  <outline>
    <contour>
      <point x="400" y="617" type="line"/>
      <point x="400" y="478" type="line"/>
      <point x="868" y="66" type="line"/>
      <point x="922" y="201" type="line"/>
      <point x="594" y="490" type="line"/>
      <point x="457" y="550" type="line"/>
      <point x="595" y="610" type="line"/>
      <point x="920" y="901" type="line"/>
      <point x="870" y="1026" type="line"/>
    </contour>
  </outline>
</glyph>
<glyph name="uni207A" format="2">
  <advance width="1300"/>
  <unicode hex="207A"/>
  <outline>
    <contour>
      <point x="200" y="992" type="line"/>
      <point x="386" y="992" type="line"/>
      <point x="386" y="781" type="line"/>
      <point x="464" y="781" type="line"/>
      <point x="464" y="992" type="line"/>
      <point x="650" y="992" type="line"/>
      <point x="650" y="1070" type="line"/>
      <point x="464" y="1070" type="line"/>
      <point x="464" y="1280" type="line"/>
      <point x="386" y="1280" type="line"/>
      <point x="386" y="1070" type="line"/>
      <point x="200" y="1070" type="line"/>
    </contour>
  </outline>
</glyph>
<glyph name="uni207E" format="2">
  <advance width="1300"/>
  <unicode hex="207E"/>
  <outline>
    <contour>
      <point x="449" y="1307" type="line" smooth="yes"/>
      <point x="449" y="1425"/>
      <point x="435" y="1517"/>
      <point x="299" y="1517" type="curve" smooth="yes"/>
      <point x="274" y="1517"/>
      <point x="241" y="1512"/>
      <point x="230" y="1504" type="curve"/>
      <point x="264" y="1441" type="line"/>
      <point x="271" y="1442" type="line"/>
      <point x="276" y="1443"/>
      <point x="282" y="1444"/>
      <point x="289" y="1444" type="curve" smooth="yes"/>
      <point x="349" y="1444"/>
      <point x="349" y="1383"/>
      <point x="349" y="1314" type="curve" smooth="yes"/>
      <point x="349" y="710" type="line" smooth="yes"/>
      <point x="349" y="641"/>
      <point x="349" y="580"/>
      <point x="289" y="580" type="curve"/>
      <point x="288" y="580" type="line"/>
      <point x="288" y="580" type="line"/>
      <point x="287" y="580" type="line"/>
      <point x="287" y="580" type="line"/>
      <point x="286" y="580" type="line"/>
      <point x="286" y="580" type="line"/>
      <point x="286" y="580" type="line"/>
      <point x="285" y="580" type="line"/>
      <point x="285" y="580" type="line"/>
      <point x="280" y="580" type="line" smooth="yes"/>
      <point x="277" y="580"/>
      <point x="274" y="580"/>
      <point x="271" y="581" type="curve"/>
      <point x="264" y="582" type="line"/>
      <point x="230" y="519" type="line"/>
      <point x="241" y="511"/>
      <point x="274" y="507"/>
      <point x="299" y="507" type="curve" smooth="yes"/>
      <point x="435" y="507"/>
      <point x="449" y="597"/>
      <point x="449" y="717" type="curve" smooth="yes"/>
    </contour>
  </outline>
</glyph>
<glyph name="uni2084" format="2">
  <advance width="1300"/>
  <unicode hex="2084"/>
  <outline>
    <contour>
      <point x="674" y="-270" type="line"/>
      <point x="577" y="-270" type="line"/>
      <point x="577" y="-75" type="line"/>
      <point x="472" y="-67" type="line"/>
      <point x="472" y="-270" type="line"/>
      <point x="257" y="-270" type="line"/>
      <point x="303" y="-200" type="line"/>
      <point x="511" y="250" type="line"/>
      <point x="416" y="260" type="line"/>
      <point x="174" y="-265" type="line"/>
      <point x="174" y="-350" type="line"/>
      <point x="472" y="-350" type="line"/>
      <point x="472" y="-500" type="line"/>
      <point x="577" y="-500" type="line"/>
      <point x="577" y="-350" type="line"/>
      <point x="667" y="-350" type="line"/>
    </contour>
  </outline>
</glyph>
<glyph name="uni2085" format="2">
  <advance width="1300"/>
  <unicode hex="2085"/>
  <outline>
    <contour>
      <point x="310" y="170" type="line"/>
      <point x="582" y="170" type="line"/>
      <point x="582" y="250" type="line"/>
      <point x="206" y="250" type="line"/>
      <point x="206" y="-100" type="line"/>
      <point x="268" y="-100" type="line"/>
      <point x="286" y="-87"/>
      <point x="332" y="-67"/>
      <point x="397" y="-67" type="curve" smooth="yes"/>
      <point x="484" y="-67"/>
      <point x="528" y="-134"/>
      <point x="528" y="-201" type="curve" smooth="yes"/>
      <point x="528" y="-325"/>
      <point x="355" y="-416"/>
      <point x="206" y="-420" type="curve"/>
      <point x="206" y="-500" type="line"/>
      <point x="398" y="-500"/>
      <point x="630" y="-393"/>
      <point x="630" y="-191" type="curve" smooth="yes"/>
      <point x="630" y="-75"/>
      <point x="549" y="17"/>
      <point x="411" y="17" type="curve" smooth="yes"/>
      <point x="357" y="17"/>
      <point x="319" y="-3"/>
      <point x="310" y="-9" type="curve"/>
    </contour>
  </outline>
</glyph>
<glyph name="uni2086" format="2">
  <advance width="1300"/>
  <unicode hex="2086"/>
  <outline>
    <contour>
      <point x="592" y="257" type="line"/>
      <point x="589" y="258"/>
      <point x="584" y="258"/>
      <point x="578" y="258" type="curve"/>
      <point x="577" y="258" type="line"/>
      <point x="577" y="258" type="line"/>
      <point x="575" y="258" type="line"/>
      <point x="575" y="258" type="line"/>
      <point x="574" y="258" type="line"/>
      <point x="574" y="258" type="line"/>
      <point x="573" y="258" type="line"/>
      <point x="573" y="258" type="line"/>
      <point x="571" y="258" type="line"/>
      <point x="570" y="258" type="line"/>
      <point x="561" y="258" type="line" smooth="yes"/>
      <point x="327" y="258"/>
      <point x="176" y="48"/>
      <point x="176" y="-190" type="curve" smooth="yes"/>
      <point x="176" y="-303"/>
      <point x="231" y="-509"/>
      <point x="428" y="-509" type="curve" smooth="yes"/>
      <point x="577" y="-509"/>
      <point x="678" y="-388"/>
      <point x="678" y="-244" type="curve" smooth="yes"/>
      <point x="678" y="-98"/>
      <point x="570" y="-37"/>
      <point x="454" y="-37" type="curve" smooth="yes"/>
      <point x="407" y="-37"/>
      <point x="351" y="-55"/>
      <point x="316" y="-77" type="curve"/>
      <point x="275" y="-135" type="line"/>
      <point x="291" y="31"/>
      <point x="412" y="173"/>
      <point x="557" y="173" type="curve"/>
      <point x="558" y="173" type="line"/>
      <point x="559" y="173" type="line"/>
      <point x="560" y="173" type="line"/>
      <point x="560" y="173" type="line"/>
      <point x="562" y="173" type="line"/>
      <point x="562" y="173" type="line"/>
      <point x="567" y="173" type="line"/>
      <point x="568" y="173" type="line"/>
      <point x="569" y="173" type="line"/>
      <point x="574" y="173"/>
      <point x="577" y="173"/>
      <point x="579" y="172" type="curve"/>
    </contour>
    <contour>
      <point x="279" y="-202" type="curve"/>
      <point x="308" y="-160"/>
      <point x="374" y="-122"/>
      <point x="447" y="-122" type="curve" smooth="yes"/>
      <point x="523" y="-122"/>
      <point x="576" y="-164"/>
      <point x="576" y="-249" type="curve" smooth="yes"/>
      <point x="576" y="-335"/>
      <point x="534" y="-424"/>
      <point x="429" y="-424" type="curve" smooth="yes"/>
      <point x="354" y="-424"/>
      <point x="308" y="-372"/>
      <point x="289" y="-297" type="curve"/>
      <point x="281" y="-260"/>
      <point x="279" y="-240"/>
    </contour>
  </outline>
</glyph>
<glyph name="uni2109" format="2">
  <advance width="1300"/>
  <unicode hex="2109"/>
  <outline>
    <contour>
      <point x="145" y="1517" type="curve" smooth="yes"/>
      <point x="-4" y="1517"/>
      <point x="-124" y="1396"/>
      <point x="-124" y="1247" type="curve" smooth="yes"/>
      <point x="-124" y="1099"/>
      <point x="-4" y="977"/>
      <point x="145" y="977" type="curve" smooth="yes"/>
      <point x="294" y="977"/>
      <point x="414" y="1099"/>
      <point x="414" y="1247" type="curve" smooth="yes"/>
      <point x="414" y="1396"/>
      <point x="294" y="1517"/>
    </contour>
    <contour>
      <point x="690" y="740" type="line"/>
      <point x="1310" y="740" type="line"/>
      <point x="1310" y="885" type="line"/>
      <point x="690" y="885" type="line"/>
      <point x="690" y="1150" type="line"/>
      <point x="670" y="1340" type="line"/>
      <point x="1395" y="1340" type="line"/>
      <point x="1415" y="1500" type="line"/>
      <point x="470" y="1500" type="line"/>
      <point x="500" y="1290" type="line"/>
      <point x="500" y="0" type="line"/>
      <point x="690" y="0" type="line"/>
    </contour>
    <contour>
      <point x="145" y="1088" type="curve" smooth="yes"/>
      <point x="57" y="1088"/>
      <point x="-14" y="1159"/>
      <point x="-14" y="1247" type="curve" smooth="yes"/>
      <point x="-14" y="1335"/>
      <point x="57" y="1406"/>
      <point x="145" y="1406" type="curve" smooth="yes"/>
      <point x="233" y="1406"/>
      <point x="304" y="1335"/>
      <point x="304" y="1247" type="curve" smooth="yes"/>
      <point x="304" y="1159"/>
      <point x="233" y="1088"/>
    </contour>
  </outline>
</glyph>
<glyph name="twothirds" format="2">
  <advance width="1300"/>
  <unicode hex="2154"/>
  <outline>
    <contour>
      <point x="1070" y="1500" type="line"/>
      <point x="954" y="1500" type="line"/>
      <point x="379" y="0" type="line"/>
      <point x="504" y="0" type="line"/>
    </contour>
    <contour>
      <point x="557" y="720" type="line"/>
      <point x="557" y="800" type="line"/>
      <point x="207" y="800" type="line"/>
      <point x="246" y="863"/>
      <point x="320" y="942"/>
      <point x="389" y="1022" type="curve"/>
      <point x="443" y="1087"/>
      <point x="529" y="1169"/>
      <point x="529" y="1272" type="curve" smooth="yes"/>
      <point x="529" y="1373"/>
      <point x="451" y="1478"/>
      <point x="317" y="1478" type="curve" smooth="yes"/>
      <point x="203" y="1478"/>
      <point x="130" y="1416"/>
      <point x="95" y="1330" type="curve"/>
      <point x="166" y="1300" type="line"/>
      <point x="192" y="1345"/>
      <point x="229" y="1394"/>
      <point x="309" y="1394" type="curve" smooth="yes"/>
      <point x="381" y="1394"/>
      <point x="432" y="1341"/>
      <point x="432" y="1277" type="curve" smooth="yes"/>
      <point x="432" y="1192"/>
      <point x="368" y="1144"/>
      <point x="298" y="1064" type="curve"/>
      <point x="240" y="995"/>
      <point x="151" y="900"/>
      <point x="90" y="804" type="curve"/>
      <point x="90" y="720" type="line"/>
    </contour>
    <contour>
      <point x="1087" y="670" type="line" name=".hr01"/>
      <point x="1163" y="690" type="line"/>
      <point x="1147" y="645"/>
      <point x="1014" y="530"/>
      <point x="931" y="470" type="curve"/>
      <point x="931" y="392" type="line"/>
      <point x="951" y="393"/>
      <point x="979" y="395"/>
      <point x="1000" y="395" type="curve" smooth="yes"/>
      <point x="1108" y="395"/>
      <point x="1196" y="367"/>
      <point x="1196" y="271" type="curve" smooth="yes"/>
      <point x="1196" y="146"/>
      <point x="1036" y="84"/>
      <point x="872" y="80" type="curve"/>
      <point x="872" y="0" type="line"/>
      <point x="1068" y="0"/>
      <point x="1301" y="82"/>
      <point x="1301" y="276" type="curve" smooth="yes"/>
      <point x="1301" y="411"/>
      <point x="1200" y="474"/>
      <point x="1072" y="474" type="curve" smooth="yes"/>
      <point x="1063" y="474"/>
      <point x="1051" y="473"/>
      <point x="1044" y="472" type="curve"/>
      <point x="1110" y="509" type="line"/>
      <point x="1172" y="562"/>
      <point x="1236" y="626"/>
      <point x="1252" y="680" type="curve"/>
      <point x="1252" y="750" type="line"/>
      <point x="862" y="750" type="line"/>
      <point x="854" y="670" type="line"/>
    </contour>
  </outline>
</glyph>
<glyph name="uni215A" format="2">
  <advance width="1300"/>
  <unicode hex="215A"/>
  <outline>
    <contour>
      <point x="1070" y="1500" type="line"/>
      <point x="954" y="1500" type="line"/>
      <point x="379" y="0" type="line"/>
      <point x="504" y="0" type="line"/>
    </contour>
    <contour>
      <point x="280" y="1390" type="line"/>
      <point x="552" y="1390" type="line"/>
      <point x="552" y="1470" type="line"/>
      <point x="176" y="1470" type="line"/>
      <point x="176" y="1120" type="line"/>
      <point x="238" y="1120" type="line"/>
      <point x="256" y="1133"/>
      <point x="302" y="1153"/>
      <point x="367" y="1153" type="curve" smooth="yes"/>
      <point x="454" y="1153"/>
      <point x="498" y="1086"/>
      <point x="498" y="1019" type="curve" smooth="yes"/>
      <point x="498" y="895"/>
      <point x="325" y="804"/>
      <point x="176" y="800" type="curve"/>
      <point x="176" y="720" type="line"/>
      <point x="368" y="720"/>
      <point x="600" y="827"/>
      <point x="600" y="1029" type="curve" smooth="yes"/>
      <point x="600" y="1145"/>
      <point x="519" y="1237"/>
      <point x="381" y="1237" type="curve" smooth="yes"/>
      <point x="327" y="1237"/>
      <point x="289" y="1217"/>
      <point x="280" y="1211" type="curve"/>
    </contour>
    <contour>
      <point x="1214" y="757" type="line"/>
      <point x="1211" y="758" name=".hr01"/>
      <point x="1206" y="758"/>
      <point x="1200" y="758" type="curve" smooth="yes"/>
      <point x="1198" y="758" type="line"/>
      <point x="1198" y="758" type="line"/>
      <point x="1197" y="758" type="line"/>
      <point x="1197" y="758" type="line"/>
      <point x="1196" y="758" type="line"/>
      <point x="1196" y="758" type="line"/>
      <point x="1195" y="758" type="line"/>
      <point x="1194" y="758" type="line"/>
      <point x="1193" y="758" type="line"/>
      <point x="1192" y="758" type="line"/>
      <point x="1183" y="758" type="line" smooth="yes"/>
      <point x="949" y="758"/>
      <point x="798" y="548"/>
      <point x="798" y="310" type="curve" smooth="yes"/>
      <point x="798" y="197"/>
      <point x="853" y="-9"/>
      <point x="1050" y="-9" type="curve" smooth="yes"/>
      <point x="1199" y="-9"/>
      <point x="1300" y="112"/>
      <point x="1300" y="256" type="curve" smooth="yes"/>
      <point x="1300" y="402"/>
      <point x="1192" y="463"/>
      <point x="1076" y="463" type="curve" smooth="yes"/>
      <point x="1029" y="463"/>
      <point x="973" y="445"/>
      <point x="938" y="423" type="curve"/>
      <point x="897" y="365" type="line"/>
      <point x="913" y="531"/>
      <point x="1034" y="673"/>
      <point x="1179" y="673" type="curve" smooth="yes"/>
      <point x="1181" y="673" type="line"/>
      <point x="1182" y="673" type="line"/>
      <point x="1182" y="673" type="line"/>
      <point x="1183" y="673" type="line"/>
      <point x="1184" y="673" type="line"/>
      <point x="1184" y="673" type="line"/>
      <point x="1190" y="673" type="line"/>
      <point x="1191" y="673" type="line"/>
      <point x="1196" y="673"/>
      <point x="1199" y="673"/>
      <point x="1201" y="672" type="curve"/>
    </contour>
    <contour>
      <point x="901" y="298" type="curve"/>
      <point x="930" y="340"/>
      <point x="996" y="378"/>
      <point x="1069" y="378" type="curve" smooth="yes"/>
      <point x="1145" y="378"/>
      <point x="1198" y="336"/>
      <point x="1198" y="251" type="curve" smooth="yes"/>
      <point x="1198" y="165"/>
      <point x="1156" y="76"/>
      <point x="1051" y="76" type="curve" smooth="yes"/>
      <point x="976" y="76"/>
      <point x="930" y="128"/>
      <point x="911" y="203" type="curve"/>
      <point x="903" y="240"/>
      <point x="901" y="260"/>
    </contour>
  </outline>
</glyph>
<glyph name="uni2161" format="2">
  <advance width="2600"/>
  <unicode hex="2161"/>
  <outline>
    <contour>
      <point x="1462" y="1360" type="line"/>
      <point x="1462" y="160" type="line"/>
      <point x="1162" y="160" type="line"/>
      <point x="1162" y="1360" type="line"/>
    </contour>
    <contour>
      <point x="952" y="1360" type="line"/>
      <point x="952" y="160" type="line"/>
      <point x="606" y="160" type="line"/>
      <point x="586" y="0" type="line"/>
      <point x="2006" y="0" type="line"/>
      <point x="2026" y="160" type="line"/>
      <point x="1648" y="160" type="line"/>
      <point x="1648" y="1360" type="line"/>
      <point x="2006" y="1360" type="line"/>
      <point x="2006" y="1500" type="line"/>
      <point x="586" y="1500" type="line"/>
      <point x="606" y="1360" type="line"/>
    </contour>
  </outline>
</glyph>
<glyph name="uni2168" format="2">
  <advance width="2600"/>
  <unicode hex="2168"/>
  <outline>
    <contour>
      <point x="1208" y="1360" type="line"/>
      <point x="1533" y="799" type="line"/>
      <point x="1162" y="160" type="line"/>
      <point x="962" y="160" type="line"/>
      <point x="962" y="1360" type="line"/>
    </contour>
    <contour>
      <point x="1768" y="776" type="line"/>
      <point x="2167" y="1500" type="line"/>
      <point x="1967" y="1500" type="line"/>
      <point x="1715" y="1020" type="line"/>
      <point x="1680" y="860" type="line"/>
      <point x="1600" y="1056" type="line"/>
      <point x="1351" y="1500" type="line"/>
      <point x="386" y="1500" type="line"/>
      <point x="406" y="1360" type="line"/>
      <point x="752" y="1360" type="line"/>
      <point x="752" y="160" type="line"/>
      <point x="406" y="160" type="line"/>
      <point x="386" y="0" type="line"/>
      <point x="1268" y="0" type="line"/>
      <point x="1576" y="540" type="line"/>
      <point x="1624" y="700" type="line"/>
      <point x="1701" y="519" type="line"/>
      <point x="1978" y="0" type="line"/>
      <point x="2198" y="0" type="line"/>
    </contour>
  </outline>
</glyph>
<glyph name="uni216B" format="2">
  <advance width="2600"/>
  <unicode hex="216B"/>
  <outline>
    <contour>
      <point x="768" y="776" type="line"/>
      <point x="1090" y="1360" type="line"/>
      <point x="1362" y="1360" type="line"/>
      <point x="1362" y="160" type="line"/>
      <point x="1109" y="160" type="line"/>
    </contour>
    <contour>
      <point x="1872" y="1360" type="line"/>
      <point x="1872" y="160" type="line"/>
      <point x="1572" y="160" type="line"/>
      <point x="1572" y="1360" type="line"/>
    </contour>
    <contour>
      <point x="996" y="1500" type="line"/>
      <point x="967" y="1500" type="line"/>
      <point x="715" y="1020" type="line"/>
      <point x="680" y="860" type="line"/>
      <point x="600" y="1056" type="line"/>
      <point x="339" y="1520" type="line"/>
      <point x="127" y="1500" type="line"/>
      <point x="533" y="799" type="line"/>
      <point x="70" y="0" type="line"/>
      <point x="268" y="0" type="line"/>
      <point x="576" y="540" type="line"/>
      <point x="624" y="700" type="line"/>
      <point x="701" y="519" type="line"/>
      <point x="978" y="0" type="line"/>
      <point x="2416" y="0" type="line"/>
      <point x="2436" y="160" type="line"/>
      <point x="2058" y="160" type="line"/>
      <point x="2058" y="1360" type="line"/>
      <point x="2416" y="1360" type="line"/>
      <point x="2416" y="1500" type="line"/>
    </contour>
  </outline>
</glyph>
<glyph name="uni2174" format="2">
  <advance width="1300"/>
  <unicode hex="2174"/>
  <outline>
    <contour>
      <point x="933" y="1100" type="line"/>
      <point x="699" y="381" type="line"/>
      <point x="649" y="149" type="line"/>
      <point x="596" y="381" type="line"/>
      <point x="357" y="1120" type="line"/>
      <point x="174" y="1100" type="line"/>
      <point x="531" y="0" type="line"/>
      <point x="737" y="-20" type="line"/>
      <point x="1108" y="1120" type="line"/>
    </contour>
  </outline>
</glyph>
<glyph name="uni2176" format="2">
  <advance width="2600"/>
  <unicode hex="2176"/>
  <outline>
    <contour>
      <point x="933" y="1100" type="line"/>
      <point x="699" y="381" type="line"/>
      <point x="649" y="149" type="line"/>
      <point x="596" y="381" type="line"/>
      <point x="357" y="1120" type="line"/>
      <point x="174" y="1100" type="line"/>
      <point x="531" y="0" type="line"/>
      <point x="737" y="-20" type="line"/>
      <point x="1108" y="1120" type="line"/>
    </contour>
    <contour>
      <point x="1390" y="1120" type="line"/>
      <point x="1200" y="1100" type="line"/>
      <point x="1200" y="0" type="line"/>
      <point x="1390" y="0" type="line"/>
    </contour>
    <contour>
      <point x="1790" y="1120" type="line"/>
      <point x="1600" y="1100" type="line"/>
      <point x="1600" y="0" type="line"/>
      <point x="1790" y="0" type="line"/>
    </contour>
  </outline>
</glyph>
<glyph name="uni2177" format="2">
  <advance width="2600"/>
  <unicode hex="2177"/>
  <outline>
    <contour>
      <point x="933" y="1100" type="line"/>
      <point x="699" y="381" type="line"/>
      <point x="649" y="149" type="line"/>
      <point x="596" y="381" type="line"/>
      <point x="357" y="1120" type="line"/>
      <point x="174" y="1100" type="line"/>
      <point x="531" y="0" type="line"/>
      <point x="737" y="-20" type="line"/>
      <point x="1108" y="1120" type="line"/>
    </contour>
    <contour>
      <point x="1390" y="1120" type="line"/>
      <point x="1200" y="1100" type="line"/>
      <point x="1200" y="0" type="line"/>
      <point x="1390" y="0" type="line"/>
    </contour>
    <contour>
      <point x="1790" y="1120" type="line"/>
      <point x="1600" y="1100" type="line"/>
      <point x="1600" y="0" type="line"/>
      <point x="1790" y="0" type="line"/>
    </contour>
    <contour>
      <point x="2190" y="1120" type="line"/>
      <point x="2000" y="1100" type="line"/>
      <point x="2000" y="0" type="line"/>
      <point x="2190" y="0" type="line"/>
    </contour>
  </outline>
</glyph>
<glyph name="uni2178" format="2">
  <advance width="1300"/>
  <unicode hex="2178"/>
  <outline>
    <contour>
      <point x="1287" y="0" type="line"/>
      <point x="875" y="583" type="line"/>
      <point x="1250" y="1120" type="line"/>
      <point x="1039" y="1100" type="line"/>
      <point x="803" y="771" type="line"/>
      <point x="765" y="660" type="line"/>
      <point x="726" y="771" type="line"/>
      <point x="471" y="1120" type="line"/>
      <point x="260" y="1100" type="line"/>
      <point x="628" y="588" type="line"/>
      <point x="206" y="0" type="line"/>
      <point x="405" y="0" type="line"/>
      <point x="693" y="392" type="line"/>
      <point x="738" y="510" type="line"/>
      <point x="783" y="392" type="line"/>
      <point x="1062" y="0" type="line"/>
    </contour>
    <contour>
      <point x="190" y="1120" type="line"/>
      <point x="0" y="1100" type="line"/>
      <point x="0" y="0" type="line"/>
      <point x="190" y="0" type="line"/>
    </contour>
  </outline>
</glyph>
<glyph name="arrowupdn" format="2">
  <advance width="1300"/>
  <unicode hex="2195"/>
  <outline>
    <contour>
      <point x="700" y="853" type="line"/>
      <point x="688" y="957" type="line"/>
      <point x="763" y="900" type="line"/>
      <point x="1000" y="900" type="line"/>
      <point x="700" y="1201" type="line"/>
      <point x="600" y="1320" type="line"/>
      <point x="500" y="1200" type="line"/>
      <point x="200" y="900" type="line"/>
      <point x="435" y="900" type="line"/>
      <point x="510" y="957" type="line"/>
      <point x="500" y="853" type="line"/>
      <point x="500" y="467" type="line"/>
      <point x="510" y="363" type="line"/>
      <point x="435" y="420" type="line"/>
      <point x="200" y="420" type="line"/>
      <point x="500" y="120" type="line"/>
      <point x="600" y="0" type="line"/>
      <point x="700" y="119" type="line"/>
      <point x="1000" y="420" type="line"/>
      <point x="763" y="420" type="line"/>
      <point x="688" y="363" type="line"/>
      <point x="700" y="467" type="line"/>
    </contour>
  </outline>
</glyph>
<glyph name="uni2213" format="2">
  <advance width="1300"/>
  <unicode hex="2213"/>
  <outline>
    <contour>
      <point x="200" y="488" type="line"/>
      <point x="573" y="488" type="line"/>
      <point x="573" y="150" type="line"/>
      <point x="728" y="150" type="line"/>
      <point x="728" y="488" type="line"/>
      <point x="1100" y="488" type="line"/>
      <point x="1100" y="612" type="line"/>
      <point x="728" y="612" type="line"/>
      <point x="728" y="949" type="line"/>
      <point x="573" y="949" type="line"/>
      <point x="573" y="612" type="line"/>
      <point x="200" y="612" type="line"/>
    </contour>
    <contour>
      <point x="200" y="1060" type="line"/>
      <point x="1100" y="1060" type="line"/>
      <point x="1100" y="1200" type="line"/>
      <point x="200" y="1200" type="line"/>
    </contour>
  </outline>
</glyph>
<glyph name="uni2218" format="2">
  <advance width="1300"/>
  <unicode hex="2218"/>
  <outline>
    <contour>
      <point x="600" y="917" type="curve" smooth="yes"/>
      <point x="451" y="917"/>
      <point x="331" y="796"/>
      <point x="331" y="647" type="curve" smooth="yes"/>
      <point x="331" y="499"/>
      <point x="451" y="377"/>
      <point x="600" y="377" type="curve" smooth="yes"/>
      <point x="749" y="377"/>
      <point x="869" y="499"/>
      <point x="869" y="647" type="curve" smooth="yes"/>
      <point x="869" y="796"/>
      <point x="749" y="917"/>
    </contour>
    <contour>
      <point x="600" y="488" type="curve" smooth="yes"/>
      <point x="512" y="488"/>
      <point x="441" y="559"/>
      <point x="441" y="647" type="curve" smooth="yes"/>
      <point x="441" y="735"/>
      <point x="512" y="806"/>
      <point x="600" y="806" type="curve" smooth="yes"/>
      <point x="688" y="806"/>
      <point x="759" y="735"/>
      <point x="759" y="647" type="curve" smooth="yes"/>
      <point x="759" y="559"/>
      <point x="688" y="488"/>
    </contour>
  </outline>
</glyph>
<glyph name="infinity" format="2">
  <advance width="1300"/>
  <unicode hex="221E"/>
  <outline>
    <contour>
      <point x="634" y="578" type="line"/>
      <point x="730" y="385"/>
      <point x="794" y="240"/>
      <point x="974" y="240" type="curve" smooth="yes"/>
      <point x="1252" y="240"/>
      <point x="1280" y="460"/>
      <point x="1280" y="680" type="curve" smooth="yes"/>
      <point x="1280" y="900"/>
      <point x="1233" y="1117"/>
      <point x="974" y="1117" type="curve" smooth="yes"/>
      <point x="786" y="1117"/>
      <point x="690" y="1030"/>
      <point x="666" y="894" type="curve"/>
      <point x="666" y="778" type="line"/>
      <point x="657" y="797" type="line" smooth="yes"/>
      <point x="569" y="977"/>
      <point x="497" y="1117"/>
      <point x="326" y="1117" type="curve" smooth="yes"/>
      <point x="48" y="1117"/>
      <point x="20" y="897"/>
      <point x="20" y="677" type="curve" smooth="yes"/>
      <point x="20" y="457"/>
      <point x="67" y="240"/>
      <point x="326" y="240" type="curve" smooth="yes"/>
      <point x="514" y="240"/>
      <point x="610" y="324"/>
      <point x="634" y="463" type="curve"/>
    </contour>
    <contour>
      <point x="963" y="970" type="curve" smooth="yes" name=".hr01"/>
      <point x="1086" y="970"/>
      <point x="1111" y="830"/>
      <point x="1111" y="680" type="curve" smooth="yes"/>
      <point x="1111" y="530"/>
      <point x="1108" y="410"/>
      <point x="983" y="410" type="curve" smooth="yes"/>
      <point x="832" y="410"/>
      <point x="788" y="540"/>
      <point x="730" y="670" type="curve"/>
      <point x="770" y="790"/>
      <point x="811" y="970"/>
    </contour>
    <contour>
      <point x="337" y="387" type="curve" smooth="yes"/>
      <point x="214" y="387" name=".hr02"/>
      <point x="189" y="527"/>
      <point x="189" y="677" type="curve" smooth="yes"/>
      <point x="189" y="827"/>
      <point x="192" y="947"/>
      <point x="317" y="947" type="curve" smooth="yes"/>
      <point x="469" y="947"/>
      <point x="509" y="817"/>
      <point x="570" y="687" type="curve"/>
      <point x="530" y="567"/>
      <point x="489" y="387"/>
    </contour>
  </outline>
</glyph>
<glyph name="logicaland" format="2">
  <advance width="1300"/>
  <unicode hex="2227"/>
  <outline>
    <contour>
      <point x="522" y="1300" type="line"/>
      <point x="93" y="0" type="line"/>
      <point x="255" y="0" type="line"/>
      <point x="592" y="980" type="line"/>
      <point x="657" y="1220" type="line"/>
      <point x="722" y="980" type="line"/>
      <point x="1058" y="0" type="line"/>
      <point x="1222" y="0" type="line"/>
      <point x="780" y="1320" type="line"/>
    </contour>
  </outline>
</glyph>
<glyph name="therefore" format="2">
  <advance width="1300"/>
  <unicode hex="2234"/>
  <outline>
    <contour>
      <point x="36" y="1040" type="curve" smooth="yes"/>
      <point x="36" y="949"/>
      <point x="110" y="873"/>
      <point x="202" y="873" type="curve" smooth="yes"/>
      <point x="292" y="873"/>
      <point x="365" y="949"/>
      <point x="365" y="1040" type="curve" smooth="yes"/>
      <point x="365" y="1131"/>
      <point x="291" y="1205"/>
      <point x="200" y="1205" type="curve" smooth="yes"/>
      <point x="110" y="1205"/>
      <point x="36" y="1131"/>
    </contour>
    <contour>
      <point x="-364" y="150" type="curve" smooth="yes"/>
      <point x="-364" y="59"/>
      <point x="-290" y="-17"/>
      <point x="-198" y="-17" type="curve" smooth="yes"/>
      <point x="-108" y="-17"/>
      <point x="-35" y="59"/>
      <point x="-35" y="150" type="curve" smooth="yes"/>
      <point x="-35" y="241"/>
      <point x="-109" y="315"/>
      <point x="-200" y="315" type="curve" smooth="yes"/>
      <point x="-290" y="315"/>
      <point x="-364" y="241"/>
    </contour>
    <contour>
      <point x="436" y="150" type="curve" smooth="yes"/>
      <point x="436" y="59"/>
      <point x="510" y="-17"/>
      <point x="602" y="-17" type="curve" smooth="yes"/>
      <point x="692" y="-17"/>
      <point x="765" y="59"/>
      <point x="765" y="150" type="curve" smooth="yes"/>
      <point x="765" y="241"/>
      <point x="691" y="315"/>
      <point x="600" y="315" type="curve" smooth="yes"/>
      <point x="510" y="315"/>
      <point x="436" y="241"/>
    </contour>
  </outline>
</glyph>
<glyph name="uni22EE" format="2">
  <advance width="1300"/>
  <unicode hex="22EE"/>
  <outline>
    <contour>
      <point x="36" y="1350" type="curve" smooth="yes"/>
      <point x="36" y="1259"/>
      <point x="110" y="1183"/>
      <point x="202" y="1183" type="curve" smooth="yes"/>
      <point x="292" y="1183"/>
      <point x="365" y="1259"/>
      <point x="365" y="1350" type="curve" smooth="yes"/>
      <point x="365" y="1441"/>
      <point x="291" y="1515"/>
      <point x="200" y="1515" type="curve" smooth="yes"/>
      <point x="110" y="1515"/>
      <point x="36" y="1441"/>
    </contour>
    <contour>
      <point x="36" y="750" type="curve" smooth="yes"/>
      <point x="36" y="659"/>
      <point x="110" y="583"/>
      <point x="202" y="583" type="curve" smooth="yes"/>
      <point x="292" y="583"/>
      <point x="365" y="659"/>
      <point x="365" y="750" type="curve" smooth="yes"/>
      <point x="365" y="841"/>
      <point x="291" y="915"/>
      <point x="200" y="915" type="curve" smooth="yes"/>
      <point x="110" y="915"/>
      <point x="36" y="841"/>
    </contour>
    <contour>
      <point x="36" y="150" type="curve" smooth="yes"/>
      <point x="36" y="59"/>
      <point x="110" y="-17"/>
      <point x="202" y="-17" type="curve" smooth="yes"/>
      <point x="292" y="-17"/>
      <point x="365" y="59"/>
      <point x="365" y="150" type="curve" smooth="yes"/>
      <point x="365" y="241"/>
      <point x="291" y="315"/>
      <point x="200" y="315" type="curve" smooth="yes"/>
      <point x="110" y="315"/>
      <point x="36" y="241"/>
    </contour>
  </outline>
</glyph>
<glyph name="heart" format="2">
  <advance width="1300"/>
  <unicode hex="2665"/>
  <outline>
    <contour>
      <point x="1406" y="1200" type="curve" smooth="yes"/>
      <point x="1343.33" y="1276.33"/>
      <point x="1249.67" y="1314.5"/>
      <point x="1125" y="1314.5" type="curve" smooth="yes"/>
      <point x="1013.67" y="1314.5"/>
      <point x="923.333" y="1272.83"/>
      <point x="854" y="1189.5" type="curve"/>
      <point x="784.667" y="1120.17"/>
      <point x="750" y="1078.5"/>
      <point x="750" y="1064.5" type="curve"/>
      <point x="750" y="1078.5"/>
      <point x="715.333" y="1120.17"/>
      <point x="646" y="1189.5" type="curve"/>
      <point x="576.667" y="1272.83"/>
      <point x="486.333" y="1314.5"/>
      <point x="375" y="1314.5" type="curve" smooth="yes"/>
      <point x="250.333" y="1314.5"/>
      <point x="156.667" y="1276.33"/>
      <point x="94" y="1200" type="curve" smooth="yes"/>
      <point x="31.333" y="1123.67"/>
      <point x="0" y="1036.83"/>
      <point x="0" y="939.5" type="curve" smooth="yes"/>
      <point x="0" y="828.833"/>
      <point x="27.667" y="717.833"/>
      <point x="83" y="606.5" type="curve"/>
      <point x="153" y="453.833"/>
      <point x="375.333" y="231.5"/>
      <point x="750" y="-60.5" type="curve"/>
      <point x="1125.33" y="245.5"/>
      <point x="1347.67" y="467.833"/>
      <point x="1417" y="606.5" type="curve" smooth="yes"/>
      <point x="1472.33" y="717.167"/>
      <point x="1500" y="828.167"/>
      <point x="1500" y="939.5" type="curve" smooth="yes"/>
      <point x="1500" y="1036.83"/>
      <point x="1468.67" y="1123.67"/>
    </contour>
  </outline>
</glyph>
<glyph name="uni2713" format="2">
  <advance width="1300"/>
  <unicode hex="2713"/>
  <outline>
    <contour>
      <point x="328" y="820" type="line"/>
      <point x="160" y="800" type="line"/>
      <point x="365" y="280" type="line"/>
      <point x="587" y="263" type="line"/>
      <point x="619" y="631"/>
      <point x="908" y="1100"/>
      <point x="1088" y="1300" type="curve"/>
      <point x="957" y="1317" type="line"/>
      <point x="852" y="1231"/>
      <point x="610" y="941"/>
      <point x="490" y="600" type="curve"/>
      <point x="480" y="400" type="line"/>
    </contour>
  </outline>
</glyph>
<glyph name="uni2782" format="2">
  <advance width="1300"/>
  <unicode hex="2782"/>
  <outline>
    <contour>
      <point x="10" y="750" type="curve" smooth="yes"/>
      <point x="10" y="370"/>
      <point x="270" y="10"/>
      <point x="650" y="10" type="curve" smooth="yes"/>
      <point x="1030" y="10"/>
      <point x="1290" y="370"/>
      <point x="1290" y="750" type="curve" smooth="yes"/>
      <point x="1290" y="1130"/>
      <point x="1030" y="1490"/>
      <point x="650" y="1490" type="curve" smooth="yes"/>
      <point x="270" y="1490"/>
      <point x="10" y="1130"/>
    </contour>
    <contour>
      <point x="116" y="750" type="curve" smooth="yes"/>
      <point x="116" y="1072"/>
      <point x="328" y="1383"/>
      <point x="650" y="1383" type="curve" smooth="yes"/>
      <point x="972" y="1383"/>
      <point x="1183" y="1072"/>
      <point x="1183" y="750" type="curve" smooth="yes"/>
      <point x="1183" y="427"/>
      <point x="972" y="116"/>
      <point x="650" y="116" type="curve" smooth="yes"/>
      <point x="328" y="116"/>
      <point x="116" y="428"/>
    </contour>
    <contour>
      <point x="700" y="1104" type="line"/>
      <point x="791" y="1128" type="line"/>
      <point x="770" y="1073"/>
      <point x="611" y="938"/>
      <point x="513" y="864" type="curve"/>
      <point x="513" y="771" type="line"/>
      <point x="537" y="772"/>
      <point x="570" y="774"/>
      <point x="595" y="774" type="curve" smooth="yes"/>
      <point x="726" y="774"/>
      <point x="830" y="742"/>
      <point x="830" y="626" type="curve" smooth="yes"/>
      <point x="830" y="473"/>
      <point x="640" y="404"/>
      <point x="441" y="396" type="curve"/>
      <point x="441" y="300" type="line"/>
      <point x="678" y="300"/>
      <point x="956" y="399"/>
      <point x="956" y="632" type="curve" smooth="yes"/>
      <point x="956" y="793"/>
      <point x="836" y="869"/>
      <point x="681" y="869" type="curve" smooth="yes"/>
      <point x="670" y="869"/>
      <point x="656" y="868"/>
      <point x="648" y="867" type="curve"/>
      <point x="727" y="911" type="line"/>
      <point x="801" y="975"/>
      <point x="878" y="1052"/>
      <point x="897" y="1116" type="curve"/>
      <point x="897" y="1200" type="line"/>
      <point x="429" y="1200" type="line"/>
      <point x="420" y="1104" type="line"/>
    </contour>
  </outline>
</glyph>
<glyph name="uni2787" format="2">
  <advance width="1300"/>
  <unicode hex="2787"/>
  <outline>
    <contour>
      <point x="10" y="750" type="curve" smooth="yes"/>
      <point x="10" y="370"/>
      <point x="270" y="10"/>
      <point x="650" y="10" type="curve" smooth="yes"/>
      <point x="1030" y="10"/>
      <point x="1290" y="370"/>
      <point x="1290" y="750" type="curve" smooth="yes"/>
      <point x="1290" y="1130"/>
      <point x="1030" y="1490"/>
      <point x="650" y="1490" type="curve" smooth="yes"/>
      <point x="270" y="1490"/>
      <point x="10" y="1130"/>
    </contour>
    <contour>
      <point x="116" y="750" type="curve" smooth="yes"/>
      <point x="116" y="1072"/>
      <point x="328" y="1383"/>
      <point x="650" y="1383" type="curve" smooth="yes"/>
      <point x="972" y="1383"/>
      <point x="1183" y="1072"/>
      <point x="1183" y="750" type="curve" smooth="yes"/>
      <point x="1183" y="427"/>
      <point x="972" y="116"/>
      <point x="650" y="116" type="curve" smooth="yes"/>
      <point x="328" y="116"/>
      <point x="116" y="428"/>
    </contour>
    <contour>
      <point x="649" y="1210" type="curve" smooth="yes"/>
      <point x="542" y="1210"/>
      <point x="405" y="1142"/>
      <point x="405" y="986" type="curve" smooth="yes"/>
      <point x="405" y="908"/>
      <point x="465" y="855"/>
      <point x="539" y="810" type="curve"/>
      <point x="438" y="759"/>
      <point x="359" y="683"/>
      <point x="359" y="554" type="curve" smooth="yes"/>
      <point x="359" y="382"/>
      <point x="502" y="290"/>
      <point x="652" y="290" type="curve" smooth="yes"/>
      <point x="807" y="290"/>
      <point x="961" y="368"/>
      <point x="961" y="546" type="curve" smooth="yes"/>
      <point x="961" y="673"/>
      <point x="891" y="755"/>
      <point x="772" y="808" type="curve"/>
      <point x="843" y="848"/>
      <point x="903" y="900"/>
      <point x="903" y="993" type="curve" smooth="yes"/>
      <point x="903" y="1127"/>
      <point x="795" y="1210"/>
    </contour>
    <contour>
      <point x="667" y="854" type="curve"/>
      <point x="587" y="889"/>
      <point x="521" y="928"/>
      <point x="521" y="1000" type="curve" smooth="yes"/>
      <point x="521" y="1065"/>
      <point x="588" y="1111"/>
      <point x="660" y="1111" type="curve" smooth="yes"/>
      <point x="714" y="1111"/>
      <point x="787" y="1079"/>
      <point x="787" y="998" type="curve" smooth="yes"/>
      <point x="787" y="931"/>
      <point x="740" y="886"/>
    </contour>
    <contour>
      <point x="642" y="756" type="curve"/>
      <point x="740" y="714"/>
      <point x="842" y="656"/>
      <point x="842" y="549" type="curve" smooth="yes"/>
      <point x="842" y="445"/>
      <point x="755" y="388"/>
      <point x="653" y="388" type="curve" smooth="yes"/>
      <point x="562" y="388"/>
      <point x="478" y="453"/>
      <point x="478" y="548" type="curve" smooth="yes"/>
      <point x="478" y="654"/>
      <point x="542" y="714"/>
    </contour>
  </outline>
</glyph>
<glyph name="uni2788" format="2">
  <advance width="1300"/>
  <unicode hex="2788"/>
  <outline>
    <contour>
      <point x="10" y="750" type="curve" smooth="yes"/>
      <point x="10" y="370"/>
      <point x="270" y="10"/>
      <point x="650" y="10" type="curve" smooth="yes"/>
      <point x="1030" y="10"/>
      <point x="1290" y="370"/>
      <point x="1290" y="750" type="curve" smooth="yes"/>
      <point x="1290" y="1130"/>
      <point x="1030" y="1490"/>
      <point x="650" y="1490" type="curve" smooth="yes"/>
      <point x="270" y="1490"/>
      <point x="10" y="1130"/>
    </contour>
    <contour>
      <point x="116" y="750" type="curve" smooth="yes"/>
      <point x="116" y="1072"/>
      <point x="328" y="1383"/>
      <point x="650" y="1383" type="curve" smooth="yes"/>
      <point x="972" y="1383"/>
      <point x="1183" y="1072"/>
      <point x="1183" y="750" type="curve" smooth="yes"/>
      <point x="1183" y="427"/>
      <point x="972" y="116"/>
      <point x="650" y="116" type="curve" smooth="yes"/>
      <point x="328" y="116"/>
      <point x="116" y="428"/>
    </contour>
    <contour>
      <point x="848" y="758" type="line"/>
      <point x="837" y="552"/>
      <point x="681" y="391"/>
      <point x="490" y="380" type="curve"/>
      <point x="508" y="280" type="line"/>
      <point x="791" y="292"/>
      <point x="965" y="538"/>
      <point x="965" y="818" type="curve" smooth="yes"/>
      <point x="965" y="960"/>
      <point x="902" y="1200"/>
      <point x="662" y="1200" type="curve" smooth="yes"/>
      <point x="483" y="1200"/>
      <point x="369" y="1080"/>
      <point x="369" y="909" type="curve" smooth="yes"/>
      <point x="369" y="742"/>
      <point x="492" y="634"/>
      <point x="649" y="634" type="curve" smooth="yes"/>
      <point x="709" y="634"/>
      <point x="753" y="651"/>
      <point x="800" y="688" type="curve"/>
    </contour>
    <contour>
      <point x="841" y="862" type="curve"/>
      <point x="812" y="793"/>
      <point x="740" y="736"/>
      <point x="655" y="736" type="curve" smooth="yes"/>
      <point x="543" y="736"/>
      <point x="491" y="815"/>
      <point x="491" y="919" type="curve" smooth="yes"/>
      <point x="491" y="1026"/>
      <point x="560" y="1098"/>
      <point x="667" y="1098" type="curve" smooth="yes"/>
      <point x="783" y="1098"/>
      <point x="836" y="981"/>
    </contour>
  </outline>
</glyph>
<glyph name="uni278D" format="2">
  <advance width="1300"/>
  <unicode hex="278D"/>
  <outline>
    <contour>
      <point x="50" y="750" type="curve" smooth="yes"/>
      <point x="50" y="390"/>
      <point x="290" y="48"/>
      <point x="650" y="48" type="curve" smooth="yes"/>
      <point x="1010" y="48"/>
      <point x="1250" y="390"/>
      <point x="1250" y="750" type="curve" smooth="yes"/>
      <point x="1250" y="1110"/>
      <point x="1010" y="1452"/>
      <point x="650" y="1452" type="curve" smooth="yes"/>
      <point x="290" y="1452"/>
      <point x="50" y="1110"/>
    </contour>
    <contour>
      <point x="936" y="480" type="line"/>
      <point x="828" y="480" type="line"/>
      <point x="828" y="300" type="line"/>
      <point x="702" y="300" type="line"/>
      <point x="702" y="480" type="line"/>
      <point x="345" y="480" type="line"/>
      <point x="345" y="583" type="line"/>
      <point x="635" y="1212" type="line"/>
      <point x="748" y="1200" type="line"/>
      <point x="499" y="660" type="line"/>
      <point x="444" y="576" type="line"/>
      <point x="702" y="576" type="line"/>
      <point x="702" y="820" type="line"/>
      <point x="828" y="810" type="line"/>
      <point x="828" y="576" type="line"/>
      <point x="945" y="576" type="line"/>
    </contour>
  </outline>
</glyph>
<glyph name="uni2790" format="2">
  <advance width="1300"/>
  <unicode hex="2790"/>
  <outline>
    <contour>
      <point x="50" y="750" type="curve" smooth="yes"/>
      <point x="50" y="390"/>
      <point x="290" y="48"/>
      <point x="650" y="48" type="curve" smooth="yes"/>
      <point x="1010" y="48"/>
      <point x="1250" y="390"/>
      <point x="1250" y="750" type="curve" smooth="yes"/>
      <point x="1250" y="1110"/>
      <point x="1010" y="1452"/>
      <point x="650" y="1452" type="curve" smooth="yes"/>
      <point x="290" y="1452"/>
      <point x="50" y="1110"/>
    </contour>
    <contour>
      <point x="384" y="1170" type="line"/>
      <point x="950" y="1170" type="line"/>
      <point x="950" y="1092" type="line" smooth="yes"/>
      <point x="950" y="987"/>
      <point x="685" y="697"/>
      <point x="661" y="467" type="curve"/>
      <point x="655" y="420"/>
      <point x="653" y="363"/>
      <point x="653" y="315" type="curve" smooth="yes"/>
      <point x="653" y="313" type="line"/>
      <point x="653" y="311" type="line"/>
      <point x="653" y="302" type="line"/>
      <point x="653" y="297" type="line"/>
      <point x="653" y="293" type="line"/>
      <point x="653" y="291" type="line"/>
      <point x="653" y="276" type="line"/>
      <point x="653" y="274" type="line"/>
      <point x="653" y="270" type="line"/>
      <point x="530" y="270" type="line"/>
      <point x="530" y="319"/>
      <point x="531" y="443"/>
      <point x="544" y="505" type="curve" smooth="yes"/>
      <point x="600" y="761"/>
      <point x="817" y="1003"/>
      <point x="817" y="1074" type="curve"/>
      <point x="384" y="1074" type="line"/>
    </contour>
  </outline>
</glyph>
<glyph name="HEAVYCIRCLE" format="2">
  <advance width="1300"/>
  <unicode hex="2B58"/>
  <outline>
    <contour>
      <point x="895" y="1522.5" type="curve" smooth="yes"/>
      <point x="1388" y="1522.5"/>
      <point x="1791" y="1120.5"/>
      <point x="1791" y="627.5" type="curve" smooth="yes"/>
      <point x="1791" y="134.5"/>
      <point x="1388" y="-268.5"/>
      <point x="895" y="-268.5" type="curve" smooth="yes"/>
      <point x="402" y="-268.5"/>
      <point x="0" y="134.5"/>
      <point x="0" y="627.5" type="curve" smooth="yes"/>
      <point x="0" y="1120.5"/>
      <point x="402" y="1522.5"/>
    </contour>
    <contour>
      <point x="895" y="1216.5" type="curve" smooth="yes"/>
      <point x="568" y="1216.5"/>
      <point x="307" y="954.5"/>
      <point x="307" y="627.5" type="curve" smooth="yes"/>
      <point x="307" y="300.5"/>
      <point x="568" y="37.5"/>
      <point x="895" y="37.5" type="curve" smooth="yes"/>
      <point x="1222" y="37.5"/>
      <point x="1485" y="300.5"/>
      <point x="1485" y="627.5" type="curve" smooth="yes"/>
      <point x="1485" y="954.5"/>
      <point x="1222" y="1216.5"/>
    </contour>
  </outline>
</glyph>
<glyph name="POMODORO_TICKING" format="2">
  <advance width="1300"/>
  <unicode hex="E003"/>
  <outline>
    <contour>
      <point x="804" y="95" type="line"/>
      <point x="678" y="95" type="line"/>
      <point x="678" y="491" type="line"/>
      <point x="404" y="667" type="line"/>
      <point x="474" y="775" type="line"/>
      <point x="804" y="563" type="line"/>
    </contour>
    <contour>
      <point x="726" y="1411" type="line"/>
      <point x="570" y="1385" type="line"/>
      <point x="644" y="1139" type="line"/>
      <point x="596" y="1193"/>
      <point x="516" y="1267"/>
      <point x="370" y="1267" type="curve" smooth="yes"/>
      <point x="226" y="1267"/>
      <point x="152" y="1225"/>
      <point x="112" y="1185" type="curve" smooth="yes"/>
      <point x="88" y="1161"/>
      <point x="72" y="1135"/>
      <point x="66" y="1105" type="curve"/>
      <point x="290" y="1165" type="line"/>
      <point x="364" y="1165"/>
      <point x="438" y="1105"/>
      <point x="492" y="1047" type="curve"/>
      <point x="466" y="1049"/>
      <point x="448" y="1051"/>
      <point x="426" y="1051" type="curve" smooth="yes"/>
      <point x="190" y="1051"/>
      <point x="0" y="853"/>
      <point x="0" y="559" type="curve" smooth="yes"/>
      <point x="0" y="161"/>
      <point x="282" y="-157"/>
      <point x="746" y="-157" type="curve" smooth="yes"/>
      <point x="1126" y="-157"/>
      <point x="1494" y="75" name=".hr01"/>
      <point x="1494" y="577" type="curve" smooth="yes"/>
      <point x="1494" y="859"/>
      <point x="1304" y="1043"/>
      <point x="1068" y="1043" type="curve" smooth="yes"/>
      <point x="1046" y="1043"/>
      <point x="1024" y="1041"/>
      <point x="1008" y="1035" type="curve"/>
      <point x="980" y="1027" type="line"/>
      <point x="1006" y="1073"/>
      <point x="1036" y="1115"/>
      <point x="1070" y="1149" type="curve"/>
      <point x="1392" y="1089" type="line"/>
      <point x="1382" y="1119"/>
      <point x="1362" y="1147"/>
      <point x="1336" y="1171" type="curve" smooth="yes"/>
      <point x="1290" y="1213"/>
      <point x="1206" y="1255"/>
      <point x="1060" y="1255" type="curve" smooth="yes"/>
      <point x="982" y="1255"/>
      <point x="924" y="1225"/>
      <point x="886" y="1195" type="curve" smooth="yes"/>
      <point x="862" y="1177"/>
      <point x="842" y="1157"/>
      <point x="828" y="1135" type="curve"/>
      <point x="814" y="929" type="line"/>
      <point x="794" y="929" type="line"/>
    </contour>
  </outline>
</glyph>
<glyph name="uniE0A0" format="2">
  <advance width="1300"/>
  <unicode hex="E0A0"/>
  <outline>
    <contour>
      <point x="460" y="-503" type="line"/>
      <point x="460" y="-33" type="line" smooth="yes"/>
      <point x="460" y="49"/>
      <point x="474" y="113"/>
      <point x="500" y="159" type="curve"/>
      <point x="522" y="201"/>
      <point x="564" y="239"/>
      <point x="624" y="279" type="curve" smooth="yes"/>
      <point x="698" y="329" type="line" smooth="yes"/>
      <point x="768" y="375"/>
      <point x="820" y="431"/>
      <point x="854" y="497" type="curve" smooth="yes"/>
      <point x="888" y="563"/>
      <point x="906" y="661"/>
      <point x="906" y="785" type="curve" smooth="yes"/>
      <point x="906" y="1161" type="line"/>
      <point x="1110" y="1161" type="line"/>
      <point x="826" y="1495" type="line"/>
      <point x="540" y="1161" type="line"/>
      <point x="744" y="1161" type="line"/>
      <point x="744" y="839" type="line" smooth="yes"/>
      <point x="744" y="755"/>
      <point x="732" y="687"/>
      <point x="706" y="635" type="curve" smooth="yes"/>
      <point x="680" y="583"/>
      <point x="640" y="537"/>
      <point x="582" y="499" type="curve" smooth="yes"/>
      <point x="432" y="403" type="line" smooth="yes"/>
      <point x="358" y="355"/>
      <point x="304" y="305"/>
      <point x="268" y="253" type="curve" smooth="yes"/>
      <point x="216" y="179"/>
      <point x="190" y="83"/>
      <point x="190" y="-33" type="curve" smooth="yes"/>
      <point x="190" y="-503" type="line"/>
    </contour>
    <contour>
      <point x="460" y="653" type="line"/>
      <point x="460" y="1757" type="line"/>
      <point x="190" y="1757" type="line"/>
      <point x="190" y="479" type="line"/>
    </contour>
  </outline>
</glyph>
<glyph name="uniE0A3" format="2">
  <advance width="1300"/>
  <unicode hex="E0A3"/>
  <outline>
    <contour>
      <point x="867.5" y="580.5" type="line"/>
      <point x="867.5" y="414.5" type="line"/>
      <point x="893.5" y="-36.5" type="line"/>
      <point x="589.5" y="580.5" type="line"/>
      <point x="386.5" y="580.5" type="line"/>
      <point x="386.5" y="-365.5" type="line"/>
      <point x="579.5" y="-365.5" type="line"/>
      <point x="579.5" y="-160.5" type="line"/>
      <point x="556.5" y="249.5" type="line"/>
      <point x="857.5" y="-365.5" type="line"/>
      <point x="1062.5" y="-365.5" type="line"/>
      <point x="1062.5" y="580.5" type="line"/>
    </contour>
    <contour>
      <point x="842.5" y="803.5" type="line"/>
      <point x="425.5" y="803.5" type="line" name=".hr01"/>
      <point x="422.5" y="1463.5" type="line"/>
      <point x="842.5" y="1463.5" type="line"/>
      <point x="842.5" y="1619.5" type="line"/>
      <point x="456.5" y="1619.5" type="line"/>
      <point x="237.5" y="1619.5" type="line"/>
      <point x="237.5" y="665.5" type="line"/>
      <point x="842.5" y="665.5" type="line"/>
    </contour>
  </outline>
</glyph>
<glyph name="uniE0A5" format="2">
  <advance width="1300"/>
  <unicode hex="E0A5"/>
  <outline>
    <contour>
      <point x="410" y="100" type="line"/>
      <point x="310" y="100" type="line"/>
      <point x="230" y="1000" type="line"/>
      <point x="367" y="1000" type="line"/>
    </contour>
    <contour>
      <point x="510" y="100" type="line"/>
      <point x="464" y="1000" type="line"/>
      <point x="600" y="1000" type="line"/>
      <point x="600" y="100" type="line"/>
    </contour>
    <contour>
      <point x="837" y="1000" type="line"/>
      <point x="790" y="100" type="line"/>
      <point x="700" y="100" type="line"/>
      <point x="700" y="1000" type="line"/>
    </contour>
    <contour>
      <point x="890" y="100" type="line"/>
      <point x="933" y="1000" type="line"/>
      <point x="1070" y="1000" type="line"/>
      <point x="990" y="100" type="line"/>
    </contour>
    <contour>
      <point x="890" y="1400" type="line"/>
      <point x="890" y="1300" type="line"/>
      <point x="410" y="1300" type="line"/>
      <point x="410" y="1400" type="line"/>
    </contour>
    <contour>
      <point x="1070" y="0" type="line"/>
      <point x="1170" y="1100" type="line"/>
      <point x="130" y="1100" type="line"/>
      <point x="230" y="0" type="line"/>
    </contour>
    <contour>
      <point x="1220" y="1200" type="line"/>
      <point x="1170" y="1300" type="line"/>
      <point x="990" y="1300" type="line"/>
      <point x="990" y="1400" type="line" smooth="yes"/>
      <point x="990" y="1455"/>
      <point x="969" y="1500"/>
      <point x="913" y="1500" type="curve" smooth="yes"/>
      <point x="410" y="1500" type="line" smooth="yes"/>
      <point x="354" y="1500"/>
      <point x="310" y="1455"/>
      <point x="310" y="1400" type="curve" smooth="yes"/>
      <point x="310" y="1300" type="line"/>
      <point x="130" y="1300" type="line"/>
      <point x="80" y="1200" type="line"/>
      <point x="130" y="1160" type="line"/>
      <point x="1170" y="1160" type="line"/>
    </contour>
  </outline>
</glyph>
<glyph name="uniE0B1" format="2">
  <advance width="1300"/>
  <unicode hex="E0B1"/>
  <outline>
    <contour>
      <point x="-26" y="1877.82" type="line"/>
      <point x="902.2" y="628.25" type="line"/>
      <point x="-26" y="-621.32" type="line"/>
      <point x="69.8799" y="-738.779" type="line"/>
      <point x="1087.84" y="628.25" type="line"/>
      <point x="69.8799" y="1992.78" type="line"/>
    </contour>
  </outline>
</glyph>
<glyph name="uniE0B2" format="2">
  <advance width="1300"/>
  <unicode hex="E0B2"/>
  <outline>
    <contour>
      <point x="1326" y="-738.779" type="line"/>
      <point x="1326" y="1992.78" type="line"/>
      <point x="269.28" y="628.203" type="line"/>
    </contour>
  </outline>
</glyph>
<glyph name="uniE0B3" format="2">
  <advance width="1300"/>
  <unicode hex="E0B3"/>
  <outline>
    <contour>
      <point x="397.8" y="628.25" type="line"/>
      <point x="1326" y="1877.82" type="line"/>
      <point x="1232.16" y="1992.78" type="line"/>
      <point x="214.2" y="628.25" type="line"/>
      <point x="1232.16" y="-738.779" type="line"/>
      <point x="1326" y="-621.32" type="line"/>
    </contour>
  </outline>
</glyph>
<glyph name="uniE0B5" format="2">
  <advance width="1300"/>
  <unicode hex="E0B5"/>
  <outline>
    <contour>
      <point x="133.45" y="-725.391" type="curve"/>
      <point x="-13" y="-725.391" type="line"/>
      <point x="378.88" y="-466.215"/>
      <point x="578.86" y="112.646"/>
      <point x="578.86" y="625.287" type="curve" smooth="yes"/>
      <point x="578.86" y="1137.93"/>
      <point x="380.9" y="1722.5"/>
      <point x="-13" y="1979.39" type="curve"/>
      <point x="133.45" y="1979.39" type="line"/>
      <point x="527.351" y="1722.5"/>
      <point x="725.311" y="1137.93"/>
      <point x="725.311" y="625.287" type="curve" smooth="yes"/>
      <point x="725.311" y="112.646"/>
      <point x="527.351" y="-471.924"/>
    </contour>
  </outline>
</glyph>
<glyph name="uniE0B7" format="2">
  <advance width="1300"/>
  <unicode hex="E0B7"/>
  <outline>
    <contour>
      <point x="1165.54" y="-725.391" type="curve"/>
      <point x="1313" y="-725.391" type="line"/>
      <point x="921.12" y="-466.215"/>
      <point x="721.14" y="112.646"/>
      <point x="721.14" y="625.287" type="curve" smooth="yes"/>
      <point x="721.14" y="1137.93"/>
      <point x="919.1" y="1722.5"/>
      <point x="1313" y="1979.39" type="curve"/>
      <point x="1165.54" y="1979.39" type="line"/>
      <point x="771.64" y="1722.5"/>
      <point x="574.689" y="1137.93"/>
      <point x="574.689" y="625.287" type="curve" smooth="yes"/>
      <point x="574.689" y="112.646"/>
      <point x="771.64" y="-471.924"/>
    </contour>
  </outline>
</glyph>
<glyph name="uniE0B8" format="2">
  <advance width="1300"/>
  <unicode hex="E0B8"/>
  <outline>
    <contour>
      <point x="-26" y="-738.78" type="line"/>
      <point x="2469.94" y="-738.78" type="line"/>
      <point x="-26" y="1992.78" type="line"/>
    </contour>
  </outline>
</glyph>
<glyph name="uniE0BF" format="2">
  <advance width="1300"/>
  <unicode hex="E0BF"/>
  <outline>
    <contour>
      <point x="-1292.34" y="1992.78" type="line"/>
      <point x="-1170.96" y="1992.78" type="line"/>
      <point x="1326" y="-738.78" type="line"/>
      <point x="1203.6" y="-738.78" type="line"/>
    </contour>
  </outline>
</glyph>
<glyph name="uniE0C4" format="2">
  <advance width="1300"/>
  <unicode hex="E0C4"/>
  <outline>
    <contour>
      <point x="825" y="1931.53" type="line"/>
      <point x="977" y="1931.53" type="line"/>
      <point x="977" y="1758.06" type="line"/>
      <point x="825" y="1758.06" type="line"/>
    </contour>
    <contour>
      <point x="811" y="1966" type="line" smooth="yes"/>
      <point x="805" y="1966"/>
      <point x="796" y="1959.11"/>
      <point x="796" y="1948.77" type="curve" smooth="yes"/>
      <point x="796" y="1740.82" type="line" smooth="yes"/>
      <point x="796" y="1733.93"/>
      <point x="802" y="1724.74"/>
      <point x="811" y="1724.74" type="curve" smooth="yes"/>
      <point x="991" y="1724.74" type="line" smooth="yes"/>
      <point x="997" y="1724.74"/>
      <point x="1006" y="1730.48"/>
      <point x="1006" y="1740.82" type="curve" smooth="yes"/>
      <point x="1006" y="1948.77" type="line" smooth="yes"/>
      <point x="1006" y="1955.66"/>
      <point x="1000" y="1966"/>
      <point x="991" y="1966" type="curve" smooth="yes"/>
    </contour>
    <contour>
      <point x="825" y="1931.53" type="line"/>
      <point x="977" y="1931.53" type="line"/>
      <point x="977" y="1758.06" type="line"/>
      <point x="825" y="1758.06" type="line"/>
    </contour>
    <contour>
      <point x="811" y="1966" type="line" smooth="yes"/>
      <point x="805" y="1966"/>
      <point x="796" y="1959.11"/>
      <point x="796" y="1948.77" type="curve" smooth="yes"/>
      <point x="796" y="1740.82" type="line" smooth="yes"/>
      <point x="796" y="1733.93"/>
      <point x="802" y="1724.74"/>
      <point x="811" y="1724.74" type="curve" smooth="yes"/>
      <point x="991" y="1724.74" type="line" smooth="yes"/>
      <point x="997" y="1724.74"/>
      <point x="1006" y="1730.48"/>
      <point x="1006" y="1740.82" type="curve" smooth="yes"/>
      <point x="1006" y="1948.77" type="line" smooth="yes"/>
      <point x="1006" y="1955.66"/>
      <point x="1000" y="1966"/>
      <point x="991" y="1966" type="curve" smooth="yes"/>
    </contour>
    <contour>
      <point x="825" y="1931.53" type="line"/>
      <point x="977" y="1931.53" type="line"/>
      <point x="977" y="1758.06" type="line"/>
      <point x="825" y="1758.06" type="line"/>
    </contour>
    <contour>
      <point x="811" y="1966" type="line" smooth="yes"/>
      <point x="805" y="1966"/>
      <point x="796" y="1959.11"/>
      <point x="796" y="1948.77" type="curve" smooth="yes"/>
      <point x="796" y="1740.82" type="line" smooth="yes"/>
      <point x="796" y="1733.93"/>
      <point x="802" y="1724.74"/>
      <point x="811" y="1724.74" type="curve" smooth="yes"/>
      <point x="991" y="1724.74" type="line" smooth="yes"/>
      <point x="997" y="1724.74"/>
      <point x="1006" y="1730.48"/>
      <point x="1006" y="1740.82" type="curve" smooth="yes"/>
      <point x="1006" y="1948.77" type="line" smooth="yes"/>
      <point x="1006" y="1955.66"/>
      <point x="1000" y="1966"/>
      <point x="991" y="1966" type="curve" smooth="yes"/>
    </contour>
    <contour>
      <point x="1824" y="1943.02" type="line"/>
      <point x="1995" y="1943.02" type="line"/>
      <point x="1995" y="1746.57" type="line"/>
      <point x="1824" y="1746.57" type="line"/>
    </contour>
    <contour>
      <point x="1819" y="1954.51" type="line" smooth="yes"/>
      <point x="1817" y="1954.51"/>
      <point x="1814" y="1952.21"/>
      <point x="1814" y="1948.77" type="curve" smooth="yes"/>
      <point x="1814" y="1740.82" type="line" smooth="yes"/>
      <point x="1814" y="1738.53"/>
      <point x="1816" y="1736.23"/>
      <point x="1819" y="1736.23" type="curve" smooth="yes"/>
      <point x="2000" y="1736.23" type="line" smooth="yes"/>
      <point x="2002" y="1736.23"/>
      <point x="2005" y="1737.38"/>
      <point x="2005" y="1740.82" type="curve" smooth="yes"/>
      <point x="2005" y="1948.77" type="line" smooth="yes"/>
      <point x="2005" y="1951.06"/>
      <point x="2003" y="1954.51"/>
      <point x="2000" y="1954.51" type="curve" smooth="yes"/>
    </contour>
    <contour>
      <point x="1824" y="1943.02" type="line"/>
      <point x="1995" y="1943.02" type="line"/>
      <point x="1995" y="1746.57" type="line"/>
      <point x="1824" y="1746.57" type="line"/>
    </contour>
    <contour>
      <point x="1819" y="1954.51" type="line" smooth="yes"/>
      <point x="1817" y="1954.51"/>
      <point x="1814" y="1952.21"/>
      <point x="1814" y="1948.77" type="curve" smooth="yes"/>
      <point x="1814" y="1740.82" type="line" smooth="yes"/>
      <point x="1814" y="1738.53"/>
      <point x="1816" y="1736.23"/>
      <point x="1819" y="1736.23" type="curve" smooth="yes"/>
      <point x="2000" y="1736.23" type="line" smooth="yes"/>
      <point x="2002" y="1736.23"/>
      <point x="2005" y="1737.38"/>
      <point x="2005" y="1740.82" type="curve" smooth="yes"/>
      <point x="2005" y="1948.77" type="line" smooth="yes"/>
      <point x="2005" y="1951.06"/>
      <point x="2003" y="1954.51"/>
      <point x="2000" y="1954.51" type="curve" smooth="yes"/>
    </contour>
    <contour>
      <point x="1824" y="1943.02" type="line"/>
      <point x="1995" y="1943.02" type="line"/>
      <point x="1995" y="1746.57" type="line"/>
      <point x="1824" y="1746.57" type="line"/>
    </contour>
    <contour>
      <point x="1819" y="1954.51" type="line" smooth="yes"/>
      <point x="1817" y="1954.51"/>
      <point x="1814" y="1952.21"/>
      <point x="1814" y="1948.77" type="curve" smooth="yes"/>
      <point x="1814" y="1740.82" type="line" smooth="yes"/>
      <point x="1814" y="1738.53"/>
      <point x="1816" y="1736.23"/>
      <point x="1819" y="1736.23" type="curve" smooth="yes"/>
      <point x="2000" y="1736.23" type="line" smooth="yes"/>
      <point x="2002" y="1736.23"/>
      <point x="2005" y="1737.38"/>
      <point x="2005" y="1740.82" type="curve" smooth="yes"/>
      <point x="2005" y="1948.77" type="line" smooth="yes"/>
      <point x="2005" y="1951.06"/>
      <point x="2003" y="1954.51"/>
      <point x="2000" y="1954.51" type="curve" smooth="yes"/>
    </contour>
    <contour>
      <point x="1323" y="1948.77" type="line"/>
      <point x="1323" y="1740.82" type="line"/>
      <point x="1504" y="1740.82" type="line"/>
      <point x="1504" y="1948.77" type="line"/>
    </contour>
    <contour>
      <point x="1323" y="1948.77" type="line"/>
      <point x="1323" y="1740.82" type="line"/>
      <point x="1504" y="1740.82" type="line"/>
      <point x="1504" y="1948.77" type="line"/>
    </contour>
    <contour>
      <point x="1323" y="1948.77" type="line"/>
      <point x="1323" y="1740.82" type="line"/>
      <point x="1504" y="1740.82" type="line"/>
      <point x="1504" y="1948.77" type="line"/>
    </contour>
    <contour>
      <point x="1064" y="1948.77" type="line"/>
      <point x="1064" y="1740.82" type="line"/>
      <point x="1245" y="1740.82" type="line"/>
      <point x="1245" y="1948.77" type="line"/>
    </contour>
    <contour>
      <point x="1064" y="1948.77" type="line"/>
      <point x="1064" y="1740.82" type="line"/>
      <point x="1245" y="1740.82" type="line"/>
      <point x="1245" y="1948.77" type="line"/>
    </contour>
    <contour>
      <point x="1064" y="1948.77" type="line"/>
      <point x="1064" y="1740.82" type="line"/>
      <point x="1245" y="1740.82" type="line"/>
      <point x="1245" y="1948.77" type="line"/>
    </contour>
    <contour>
      <point x="539" y="1948.77" type="line"/>
      <point x="539" y="1740.82" type="line"/>
      <point x="720" y="1740.82" type="line"/>
      <point x="720" y="1948.77" type="line"/>
    </contour>
    <contour>
      <point x="539" y="1948.77" type="line"/>
      <point x="539" y="1740.82" type="line"/>
      <point x="720" y="1740.82" type="line"/>
      <point x="720" y="1948.77" type="line"/>
    </contour>
    <contour>
      <point x="539" y="1948.77" type="line"/>
      <point x="539" y="1740.82" type="line"/>
      <point x="720" y="1740.82" type="line"/>
      <point x="720" y="1948.77" type="line"/>
    </contour>
    <contour>
      <point x="275" y="1948.77" type="line"/>
      <point x="275" y="1740.82" type="line"/>
      <point x="456" y="1740.82" type="line"/>
      <point x="456" y="1948.77" type="line"/>
    </contour>
    <contour>
      <point x="275" y="1948.77" type="line"/>
      <point x="275" y="1740.82" type="line"/>
      <point x="456" y="1740.82" type="line"/>
      <point x="456" y="1948.77" type="line"/>
    </contour>
    <contour>
      <point x="275" y="1948.77" type="line"/>
      <point x="275" y="1740.82" type="line"/>
      <point x="456" y="1740.82" type="line"/>
      <point x="456" y="1948.77" type="line"/>
    </contour>
    <contour>
      <point x="0" y="1948.77" type="line"/>
      <point x="0" y="1740.82" type="line"/>
      <point x="181" y="1740.82" type="line"/>
      <point x="181" y="1948.77" type="line"/>
    </contour>
    <contour>
      <point x="0" y="1948.77" type="line"/>
      <point x="0" y="1740.82" type="line"/>
      <point x="181" y="1740.82" type="line"/>
      <point x="181" y="1948.77" type="line"/>
    </contour>
    <contour>
      <point x="0" y="1948.77" type="line"/>
      <point x="0" y="1740.82" type="line"/>
      <point x="181" y="1740.82" type="line"/>
      <point x="181" y="1948.77" type="line"/>
    </contour>
    <contour>
      <point x="819" y="-505.205" type="line" name=".hr01"/>
      <point x="990" y="-505.205" type="line"/>
      <point x="990" y="-700.512" type="line"/>
      <point x="819" y="-700.512" type="line"/>
    </contour>
    <contour>
      <point x="814" y="-493.716" type="line" smooth="yes"/>
      <point x="812" y="-493.716"/>
      <point x="810" y="-496.014"/>
      <point x="810" y="-499.461" type="curve" smooth="yes"/>
      <point x="810" y="-706.256" type="line" smooth="yes"/>
      <point x="810" y="-708.554"/>
      <point x="811" y="-712"/>
      <point x="814" y="-712" type="curve" smooth="yes"/>
      <point x="995" y="-712" type="line" smooth="yes"/>
      <point x="997" y="-712"/>
      <point x="1000" y="-709.702"/>
      <point x="1000" y="-706.256" type="curve" smooth="yes"/>
      <point x="1000" y="-499.461" type="line" smooth="yes"/>
      <point x="1000" y="-497.163"/>
      <point x="998" y="-493.716"/>
      <point x="995" y="-493.716" type="curve" smooth="yes"/>
    </contour>
    <contour>
      <point x="819" y="-505.205" type="line"/>
      <point x="990" y="-505.205" type="line"/>
      <point x="990" y="-700.512" type="line"/>
      <point x="819" y="-700.512" type="line"/>
    </contour>
    <contour>
      <point x="814" y="-493.716" type="line" smooth="yes"/>
      <point x="812" y="-493.716"/>
      <point x="810" y="-496.014"/>
      <point x="810" y="-499.461" type="curve" smooth="yes"/>
      <point x="810" y="-706.256" type="line" smooth="yes"/>
      <point x="810" y="-708.554"/>
      <point x="811" y="-712"/>
      <point x="814" y="-712" type="curve" smooth="yes"/>
      <point x="995" y="-712" type="line" smooth="yes"/>
      <point x="997" y="-712"/>
      <point x="1000" y="-709.702"/>
      <point x="1000" y="-706.256" type="curve" smooth="yes"/>
      <point x="1000" y="-499.461" type="line" smooth="yes"/>
      <point x="1000" y="-497.163"/>
      <point x="998" y="-493.716"/>
      <point x="995" y="-493.716" type="curve" smooth="yes"/>
    </contour>
    <contour>
      <point x="819" y="-505.205" type="line"/>
      <point x="990" y="-505.205" type="line"/>
      <point x="990" y="-700.512" type="line"/>
      <point x="819" y="-700.512" type="line"/>
    </contour>
    <contour>
      <point x="814" y="-493.716" type="line" smooth="yes"/>
      <point x="812" y="-493.716"/>
      <point x="810" y="-496.014"/>
      <point x="810" y="-499.461" type="curve" smooth="yes"/>
      <point x="810" y="-706.256" type="line" smooth="yes"/>
      <point x="810" y="-708.554"/>
      <point x="811" y="-712"/>
      <point x="814" y="-712" type="curve" smooth="yes"/>
      <point x="995" y="-712" type="line" smooth="yes"/>
      <point x="997" y="-712"/>
      <point x="1000" y="-709.702"/>
      <point x="1000" y="-706.256" type="curve" smooth="yes"/>
      <point x="1000" y="-499.461" type="line" smooth="yes"/>
      <point x="1000" y="-497.163"/>
      <point x="998" y="-493.716"/>
      <point x="995" y="-493.716" type="curve" smooth="yes"/>
    </contour>
    <contour>
      <point x="275" y="-499.461" type="line"/>
      <point x="275" y="-706.256" type="line"/>
      <point x="456" y="-706.256" type="line"/>
      <point x="456" y="-499.461" type="line"/>
    </contour>
    <contour>
      <point x="275" y="-499.461" type="line"/>
      <point x="275" y="-706.256" type="line"/>
      <point x="456" y="-706.256" type="line"/>
      <point x="456" y="-499.461" type="line"/>
    </contour>
    <contour>
      <point x="275" y="-499.461" type="line"/>
      <point x="275" y="-706.256" type="line"/>
      <point x="456" y="-706.256" type="line"/>
      <point x="456" y="-499.461" type="line"/>
    </contour>
    <contour>
      <point x="0" y="-499.461" type="line"/>
      <point x="0" y="-706.256" type="line"/>
      <point x="181" y="-706.256" type="line"/>
      <point x="181" y="-499.461" type="line"/>
    </contour>
    <contour>
      <point x="0" y="-499.461" type="line"/>
      <point x="0" y="-706.256" type="line"/>
      <point x="181" y="-706.256" type="line"/>
      <point x="181" y="-499.461" type="line"/>
    </contour>
    <contour>
      <point x="0" y="-499.461" type="line"/>
      <point x="0" y="-706.256" type="line"/>
      <point x="181" y="-706.256" type="line"/>
      <point x="181" y="-499.461" type="line"/>
    </contour>
    <contour>
      <point x="1824" y="1655.81" type="line"/>
      <point x="1995" y="1655.81" type="line"/>
      <point x="1995" y="1459.35" type="line"/>
      <point x="1824" y="1459.35" type="line"/>
    </contour>
    <contour>
      <point x="1819" y="1667.3" type="line" smooth="yes"/>
      <point x="1817" y="1667.3"/>
      <point x="1814" y="1665"/>
      <point x="1814" y="1661.55" type="curve" smooth="yes"/>
      <point x="1814" y="1454.76" type="line" smooth="yes"/>
      <point x="1814" y="1452.46"/>
      <point x="1816" y="1449.01"/>
      <point x="1819" y="1449.01" type="curve" smooth="yes"/>
      <point x="2000" y="1449.01" type="line" smooth="yes"/>
      <point x="2002" y="1449.01"/>
      <point x="2005" y="1451.31"/>
      <point x="2005" y="1454.76" type="curve" smooth="yes"/>
      <point x="2005" y="1661.55" type="line" smooth="yes"/>
      <point x="2005" y="1663.85"/>
      <point x="2003" y="1667.3"/>
      <point x="2000" y="1667.3" type="curve" smooth="yes"/>
    </contour>
    <contour>
      <point x="1574" y="335.763" type="line"/>
      <point x="1745" y="335.763" type="line"/>
      <point x="1745" y="139.308" type="line" name=".hr02"/>
      <point x="1574" y="139.308" type="line"/>
    </contour>
    <contour>
      <point x="1569" y="347.252" type="line" smooth="yes"/>
      <point x="1567" y="347.252"/>
      <point x="1564" y="344.954"/>
      <point x="1564" y="341.508" type="curve" smooth="yes"/>
      <point x="1564" y="133.563" type="line" smooth="yes"/>
      <point x="1564" y="131.266"/>
      <point x="1566" y="127.818" name=".hr02"/>
      <point x="1569" y="127.818" type="curve" smooth="yes"/>
      <point x="1750" y="127.818" type="line" smooth="yes"/>
      <point x="1752" y="127.818"/>
      <point x="1755" y="130.116"/>
      <point x="1755" y="133.563" type="curve" smooth="yes"/>
      <point x="1755" y="341.508" type="line" smooth="yes"/>
      <point x="1755" y="343.805"/>
      <point x="1753" y="347.252"/>
      <point x="1750" y="347.252" type="curve" smooth="yes"/>
    </contour>
    <contour>
      <point x="1323" y="1661.55" type="line"/>
      <point x="1323" y="1454.76" type="line"/>
      <point x="1504" y="1454.76" type="line"/>
      <point x="1504" y="1661.55" type="line"/>
    </contour>
    <contour>
      <point x="1328" y="867.687" type="line"/>
      <point x="1499" y="867.687" type="line"/>
      <point x="1499" y="671.231" type="line"/>
      <point x="1328" y="671.231" type="line"/>
    </contour>
    <contour>
      <point x="1323" y="879.176" type="line" smooth="yes"/>
      <point x="1321" y="879.176"/>
      <point x="1318" y="876.878"/>
      <point x="1318" y="873.431" type="curve" smooth="yes"/>
      <point x="1318" y="665.486" type="line" smooth="yes"/>
      <point x="1318" y="663.189"/>
      <point x="1320" y="659.742"/>
      <point x="1323" y="659.742" type="curve" smooth="yes"/>
      <point x="1504" y="659.742" type="line" smooth="yes"/>
      <point x="1506" y="659.742"/>
      <point x="1509" y="662.04"/>
      <point x="1509" y="665.486" type="curve" smooth="yes"/>
      <point x="1509" y="873.431" type="line" smooth="yes"/>
      <point x="1509" y="875.729"/>
      <point x="1507" y="879.176"/>
      <point x="1504" y="879.176" type="curve" smooth="yes"/>
    </contour>
    <contour>
      <point x="1328" y="56.5889" type="line"/>
      <point x="1499" y="56.5889" type="line"/>
      <point x="1499" y="-139.866" type="line"/>
      <point x="1328" y="-139.866" type="line"/>
    </contour>
    <contour>
      <point x="1323" y="66.9287" type="line" smooth="yes"/>
      <point x="1321" y="66.9287"/>
      <point x="1318" y="65.7803"/>
      <point x="1318" y="62.334" type="curve" smooth="yes"/>
      <point x="1318" y="-145.61" type="line" smooth="yes"/>
      <point x="1318" y="-147.908"/>
      <point x="1320" y="-151.354"/>
      <point x="1323" y="-151.354" type="curve" smooth="yes"/>
      <point x="1504" y="-151.354" type="line" smooth="yes"/>
      <point x="1506" y="-151.354"/>
      <point x="1509" y="-149.058"/>
      <point x="1509" y="-145.61" type="curve" smooth="yes"/>
      <point x="1509" y="62.334" type="line" smooth="yes"/>
      <point x="1509" y="64.6318"/>
      <point x="1507" y="66.9287"/>
      <point x="1504" y="66.9287" type="curve" smooth="yes"/>
    </contour>
    <contour>
      <point x="1084" y="1368.59" type="line"/>
      <point x="1226" y="1368.59" type="line"/>
      <point x="1226" y="1206.6" type="line"/>
      <point x="1084" y="1206.6" type="line"/>
    </contour>
    <contour>
      <point x="1064" y="1413.4" type="line" smooth="yes" name=".hr03"/>
      <point x="1056" y="1413.4"/>
      <point x="1045" y="1405.35" name=".hr04"/>
      <point x="1045" y="1391.57" type="curve" smooth="yes"/>
      <point x="1045" y="1183.62" type="line" smooth="yes"/>
      <point x="1045" y="1174.43"/>
      <point x="1052" y="1161.8" name=".hr05"/>
      <point x="1064" y="1161.8" type="curve" smooth="yes"/>
      <point x="1245" y="1161.8" type="line" smooth="yes"/>
      <point x="1253" y="1161.8"/>
      <point x="1265" y="1169.84" name=".hr06"/>
      <point x="1265" y="1183.62" type="curve" smooth="yes"/>
      <point x="1265" y="1391.57" type="line" smooth="yes"/>
      <point x="1265" y="1400.76"/>
      <point x="1257" y="1413.4" name=".hr07"/>
      <point x="1245" y="1413.4" type="curve" smooth="yes" name=".hr07"/>
    </contour>
    <contour>
      <point x="1084" y="1113.54" type="line" name=".hr08"/>
      <point x="1226" y="1113.54" type="line"/>
      <point x="1226" y="950.405" type="line"/>
      <point x="1084" y="950.405" type="line"/>
    </contour>
    <contour>
      <point x="1064" y="1158.35" type="line" smooth="yes" name=".hr09"/>
      <point x="1056" y="1158.35"/>
      <point x="1045" y="1149.16" name=".hr10"/>
      <point x="1045" y="1135.37" type="curve" smooth="yes"/>
      <point x="1045" y="927.428" type="line" smooth="yes"/>
      <point x="1045" y="918.236"/>
      <point x="1052" y="905.6" name=".hr11"/>
      <point x="1064" y="905.6" type="curve" smooth="yes"/>
      <point x="1245" y="905.6" type="line" smooth="yes"/>
      <point x="1253" y="905.6"/>
      <point x="1265" y="913.642" name=".hr12"/>
      <point x="1265" y="927.428" type="curve" smooth="yes"/>
      <point x="1265" y="1135.37" type="line" smooth="yes"/>
      <point x="1265" y="1144.56"/>
      <point x="1257" y="1158.35" name=".hr13"/>
      <point x="1245" y="1158.35" type="curve" smooth="yes" name=".hr13"/>
    </contour>
    <contour>
      <point x="1064" y="873.431" type="line"/>
      <point x="1064" y="665.486" type="line"/>
      <point x="1245" y="665.486" type="line"/>
      <point x="1245" y="873.431" type="line"/>
    </contour>
    <contour>
      <point x="1064" y="610.342" type="line"/>
      <point x="1064" y="402.397" type="line"/>
      <point x="1245" y="402.397" type="line"/>
      <point x="1245" y="610.342" type="line"/>
    </contour>
    <contour>
      <point x="1084" y="318.53" type="line" name=".hr14"/>
      <point x="1226" y="318.53" type="line"/>
      <point x="1226" y="156.54" type="line" name=".hr15"/>
      <point x="1084" y="156.54" type="line"/>
    </contour>
    <contour>
      <point x="1064" y="363.336" type="line" smooth="yes" name=".hr16"/>
      <point x="1056" y="363.336"/>
      <point x="1045" y="355.294" name=".hr17"/>
      <point x="1045" y="341.508" type="curve" smooth="yes"/>
      <point x="1045" y="133.563" type="line" smooth="yes"/>
      <point x="1045" y="124.372"/>
      <point x="1052" y="111.734" name=".hr18"/>
      <point x="1064" y="111.734" type="curve" smooth="yes"/>
      <point x="1245" y="111.734" type="line" smooth="yes"/>
      <point x="1253" y="111.734"/>
      <point x="1265" y="119.776" name=".hr19"/>
      <point x="1265" y="133.563" type="curve" smooth="yes"/>
      <point x="1265" y="341.508" type="line" smooth="yes"/>
      <point x="1265" y="350.698"/>
      <point x="1257" y="363.336"/>
      <point x="1245" y="363.336" type="curve" smooth="yes" name=".hr20"/>
    </contour>
    <contour>
      <point x="814" y="1661.55" type="line"/>
      <point x="814" y="1454.76" type="line"/>
      <point x="995" y="1454.76" type="line"/>
      <point x="995" y="1661.55" type="line"/>
    </contour>
    <contour>
      <point x="814" y="1391.57" type="line"/>
      <point x="814" y="1183.62" type="line"/>
      <point x="995" y="1183.62" type="line"/>
      <point x="995" y="1391.57" type="line"/>
    </contour>
    <contour>
      <point x="839" y="844.709" type="line"/>
      <point x="971" y="844.709" type="line"/>
      <point x="971" y="693.06" type="line"/>
      <point x="839" y="693.06" type="line"/>
    </contour>
    <contour>
      <point x="814" y="901.004" type="line" smooth="yes"/>
      <point x="804" y="901.004"/>
      <point x="790" y="890.664"/>
      <point x="790" y="873.431" type="curve" smooth="yes"/>
      <point x="790" y="665.486" type="line" smooth="yes"/>
      <point x="790" y="653.998"/>
      <point x="799" y="637.914"/>
      <point x="814" y="637.914" type="curve" smooth="yes"/>
      <point x="995" y="637.914" type="line" smooth="yes"/>
      <point x="1005" y="637.914"/>
      <point x="1019" y="648.254"/>
      <point x="1019" y="665.486" type="curve" smooth="yes"/>
      <point x="1019" y="873.431" type="line" smooth="yes"/>
      <point x="1019" y="884.92"/>
      <point x="1010" y="901.004"/>
      <point x="995" y="901.004" type="curve" smooth="yes"/>
    </contour>
    <contour>
      <point x="814" y="610.342" type="line"/>
      <point x="814" y="402.397" type="line"/>
      <point x="995" y="402.397" type="line"/>
      <point x="995" y="610.342" type="line"/>
    </contour>
    <contour>
      <point x="819" y="56.5889" type="line" name=".hr21"/>
      <point x="990" y="56.5889" type="line"/>
      <point x="990" y="-139.866" type="line"/>
      <point x="819" y="-139.866" type="line"/>
    </contour>
    <contour>
      <point x="814" y="66.9287" type="line" smooth="yes"/>
      <point x="812" y="66.9287"/>
      <point x="810" y="65.7803"/>
      <point x="810" y="62.334" type="curve" smooth="yes"/>
      <point x="810" y="-145.61" type="line" smooth="yes"/>
      <point x="810" y="-147.908"/>
      <point x="811" y="-151.354"/>
      <point x="814" y="-151.354" type="curve" smooth="yes"/>
      <point x="995" y="-151.354" type="line" smooth="yes"/>
      <point x="997" y="-151.354"/>
      <point x="1000" y="-149.058"/>
      <point x="1000" y="-145.61" type="curve" smooth="yes"/>
      <point x="1000" y="62.334" type="line" smooth="yes"/>
      <point x="1000" y="64.6318"/>
      <point x="998" y="66.9287"/>
      <point x="995" y="66.9287" type="curve" smooth="yes"/>
    </contour>
    <contour>
      <point x="539" y="1661.55" type="line"/>
      <point x="539" y="1454.76" type="line"/>
      <point x="720" y="1454.76" type="line"/>
      <point x="720" y="1661.55" type="line"/>
    </contour>
    <contour>
      <point x="539" y="1391.57" type="line"/>
      <point x="539" y="1183.62" type="line"/>
      <point x="720" y="1183.62" type="line"/>
      <point x="720" y="1391.57" type="line"/>
    </contour>
    <contour>
      <point x="539" y="-217.989" type="line"/>
      <point x="539" y="-424.784" type="line"/>
      <point x="720" y="-424.784" type="line"/>
      <point x="720" y="-217.989" type="line"/>
    </contour>
    <contour>
      <point x="539" y="1135.37" type="line"/>
      <point x="539" y="927.428" type="line"/>
      <point x="720" y="927.428" type="line"/>
      <point x="720" y="1135.37" type="line"/>
    </contour>
    <contour>
      <point x="539" y="-217.989" type="line"/>
      <point x="539" y="-424.784" type="line"/>
      <point x="720" y="-424.784" type="line"/>
      <point x="720" y="-217.989" type="line"/>
    </contour>
    <contour>
      <point x="539" y="873.431" type="line"/>
      <point x="539" y="665.486" type="line"/>
      <point x="720" y="665.486" type="line"/>
      <point x="720" y="873.431" type="line"/>
    </contour>
    <contour>
      <point x="539" y="610.342" type="line"/>
      <point x="539" y="402.397" type="line"/>
      <point x="720" y="402.397" type="line"/>
      <point x="720" y="610.342" type="line"/>
    </contour>
    <contour>
      <point x="539" y="62.334" type="line"/>
      <point x="539" y="-145.61" type="line"/>
      <point x="720" y="-145.61" type="line"/>
      <point x="720" y="62.334" type="line"/>
    </contour>
    <contour>
      <point x="539" y="-217.989" type="line"/>
      <point x="539" y="-424.784" type="line"/>
      <point x="720" y="-424.784" type="line"/>
      <point x="720" y="-217.989" type="line"/>
    </contour>
    <contour>
      <point x="275" y="1661.55" type="line"/>
      <point x="275" y="1454.76" type="line"/>
      <point x="456" y="1454.76" type="line"/>
      <point x="456" y="1661.55" type="line"/>
    </contour>
    <contour>
      <point x="275" y="1391.57" type="line"/>
      <point x="275" y="1183.62" type="line"/>
      <point x="456" y="1183.62" type="line"/>
      <point x="456" y="1391.57" type="line"/>
    </contour>
    <contour>
      <point x="275" y="-217.989" type="line"/>
      <point x="275" y="-424.784" type="line"/>
      <point x="456" y="-424.784" type="line"/>
      <point x="456" y="-217.989" type="line"/>
    </contour>
    <contour>
      <point x="275" y="1135.37" type="line"/>
      <point x="275" y="927.428" type="line"/>
      <point x="456" y="927.428" type="line"/>
      <point x="456" y="1135.37" type="line"/>
    </contour>
    <contour>
      <point x="275" y="-217.989" type="line"/>
      <point x="275" y="-424.784" type="line"/>
      <point x="456" y="-424.784" type="line"/>
      <point x="456" y="-217.989" type="line"/>
    </contour>
    <contour>
      <point x="275" y="873.431" type="line"/>
      <point x="275" y="665.486" type="line"/>
      <point x="456" y="665.486" type="line"/>
      <point x="456" y="873.431" type="line"/>
    </contour>
    <contour>
      <point x="275" y="610.342" type="line"/>
      <point x="275" y="402.397" type="line"/>
      <point x="456" y="402.397" type="line"/>
      <point x="456" y="610.342" type="line"/>
    </contour>
    <contour>
      <point x="275" y="341.508" type="line"/>
      <point x="275" y="133.563" type="line"/>
      <point x="456" y="133.563" type="line"/>
      <point x="456" y="341.508" type="line"/>
    </contour>
    <contour>
      <point x="275" y="62.334" type="line"/>
      <point x="275" y="-145.61" type="line"/>
      <point x="456" y="-145.61" type="line"/>
      <point x="456" y="62.334" type="line"/>
    </contour>
    <contour>
      <point x="275" y="-217.989" type="line"/>
      <point x="275" y="-424.784" type="line"/>
      <point x="456" y="-424.784" type="line"/>
      <point x="456" y="-217.989" type="line"/>
    </contour>
    <contour>
      <point x="0" y="1661.55" type="line"/>
      <point x="0" y="1454.76" type="line"/>
      <point x="181" y="1454.76" type="line"/>
      <point x="181" y="1661.55" type="line"/>
    </contour>
    <contour>
      <point x="0" y="1391.57" type="line"/>
      <point x="0" y="1183.62" type="line"/>
      <point x="181" y="1183.62" type="line"/>
      <point x="181" y="1391.57" type="line"/>
    </contour>
    <contour>
      <point x="0" y="-217.989" type="line"/>
      <point x="0" y="-424.784" type="line"/>
      <point x="181" y="-424.784" type="line"/>
      <point x="181" y="-217.989" type="line"/>
    </contour>
    <contour>
      <point x="0" y="1135.37" type="line"/>
      <point x="0" y="927.428" type="line"/>
      <point x="181" y="927.428" type="line"/>
      <point x="181" y="1135.37" type="line"/>
    </contour>
    <contour>
      <point x="0" y="-217.989" type="line"/>
      <point x="0" y="-424.784" type="line"/>
      <point x="181" y="-424.784" type="line"/>
      <point x="181" y="-217.989" type="line"/>
    </contour>
    <contour>
      <point x="0" y="873.431" type="line"/>
      <point x="0" y="665.486" type="line"/>
      <point x="181" y="665.486" type="line"/>
      <point x="181" y="873.431" type="line"/>
    </contour>
    <contour>
      <point x="0" y="610.342" type="line"/>
      <point x="0" y="402.397" type="line"/>
      <point x="181" y="402.397" type="line"/>
      <point x="181" y="610.342" type="line"/>
    </contour>
    <contour>
      <point x="0" y="341.508" type="line"/>
      <point x="0" y="133.563" type="line"/>
      <point x="181" y="133.563" type="line"/>
      <point x="181" y="341.508" type="line"/>
    </contour>
    <contour>
      <point x="0" y="62.334" type="line"/>
      <point x="0" y="-145.61" type="line"/>
      <point x="181" y="-145.61" type="line"/>
      <point x="181" y="62.334" type="line"/>
    </contour>
    <contour>
      <point x="0" y="-217.989" type="line"/>
      <point x="0" y="-424.784" type="line"/>
      <point x="181" y="-424.784" type="line"/>
      <point x="181" y="-217.989" type="line"/>
    </contour>
  </outline>
</glyph>
